<svg width="81" height="80" viewBox="0 0 81 80" fill="none" xmlns="http://www.w3.org/2000/svg">
<rect x="0.5" width="80" height="80" rx="40" fill="#A1C4FD"/>
<g clip-path="url(#clip0_2019_2290)">
<path d="M37.6187 19.2458C36.5442 19.5602 35.9229 19.9158 35.3103 20.5669C34.7291 21.1847 34.2335 22.0645 34.2335 22.4787C34.2335 22.6239 34.0692 22.8752 33.8684 23.0372C31.414 25.0175 30.7602 26.6913 31.4958 29.1112C31.6897 29.7493 31.9484 30.4075 32.0704 30.5743C32.2705 30.8473 32.3419 30.7725 32.797 29.8126C33.927 27.4291 36.5874 25.5129 39.3664 25.0808C43.031 24.5111 46.958 26.5402 48.547 29.8243L49.0661 30.8969L49.3599 29.9917C50.268 27.1949 49.6862 24.6778 47.6347 22.5269C45.6635 20.4604 42.8572 19.1974 39.9886 19.0857C38.9749 19.0461 38.0987 19.1054 37.6187 19.2458Z" fill="white"/>
<path d="M38.6342 26.2623C36.4398 26.8359 34.6754 28.3143 33.6078 30.4746L32.9641 31.7768L32.9042 35.0247C32.8549 37.6929 32.895 38.4497 33.1291 39.265C33.6651 41.1331 34.7032 42.5328 36.3371 43.5905C38.9387 45.2748 41.8713 45.3479 44.6686 43.7984C45.6137 43.2747 47.2664 41.7104 47.2664 41.3394C47.2664 41.2563 46.7623 41.1884 46.1462 41.1884C45.143 41.1884 44.9656 41.2414 44.4477 41.6962C43.8709 42.2026 43.8639 42.204 41.7465 42.204C39.6259 42.204 39.6232 42.2035 39.129 41.7092C38.8307 41.411 38.6342 41.0361 38.6342 40.7653C38.6342 40.4945 38.8307 40.1196 39.129 39.8213C39.6232 39.3271 39.6259 39.3266 41.7465 39.3266H43.8694L44.4558 39.8415C45.0217 40.3382 45.0912 40.3545 46.4504 40.3069L47.8588 40.2575L48.1563 39.4112C48.4089 38.6927 48.4473 38.0521 48.4102 35.1708L48.3665 31.7765L47.7315 30.492C46.0071 27.0033 42.3335 25.2955 38.6342 26.2623Z" fill="white"/>
<path d="M49.5513 35.3489V37.9724H50.4212C51.8499 37.9725 52.0777 37.6721 52.1491 35.6933C52.2361 33.2858 51.8802 32.7255 50.2627 32.7255L49.5513 32.7254V35.3489Z" fill="white"/>
<path d="M29.8871 32.9268C29.2939 33.2135 29.1169 33.9073 29.1815 35.6933C29.2529 37.6721 29.4808 37.9725 30.9095 37.9724H31.7793V35.3489V32.7254L31.0176 32.7369C30.5987 32.7433 30.0901 32.8286 29.8871 32.9268Z" fill="white"/>
<path d="M35.1644 48.8201C33.887 48.9921 31.8563 49.5085 30.9208 49.8994L30.3406 50.1418V55.2282V60.3146H40.6679H50.9949L50.9503 55.1957L50.9054 50.077L49.8606 49.7046C47.5438 48.879 46.6147 48.771 41.3423 48.7143C38.5961 48.6849 35.8161 48.7324 35.1644 48.8201Z" fill="white"/>
<path d="M52.0056 55.4907V60.3146H54.6291H57.2526V58.2659C57.2526 56.2344 57.2473 56.2073 56.6319 55.0361C55.9273 53.695 54.5695 52.2344 53.1608 51.3016C52.6335 50.9526 52.1579 50.6669 52.1039 50.6669C52.0498 50.6669 52.0056 52.8376 52.0056 55.4907Z" fill="white"/>
<path d="M28.1402 51.2931C26.8048 52.1668 25.4067 53.689 24.6943 55.0445C24.084 56.2058 24.078 56.2371 24.078 58.2659V60.3146H26.7015H29.325V55.4907C29.325 52.8376 29.268 50.6708 29.1981 50.6755C29.1282 50.6801 28.6522 50.9582 28.1402 51.2931Z" fill="white"/>
<path d="M36.2646 46.2057V47.5356H40.6653H45.066V46.2238C45.066 45.5025 45.0249 44.9121 44.9746 44.9121C44.9243 44.9121 44.6007 45.0533 44.2553 45.2256C42.5654 46.0695 39.9125 46.2044 38.0193 45.5429C37.38 45.3197 36.7238 45.0781 36.5608 45.0064C36.2927 44.8882 36.2646 45.0023 36.2646 46.2057Z" fill="white"/>
<path d="M39.7141 40.5879C39.5199 41.0936 39.8432 41.1884 41.7614 41.1884C43.6933 41.1884 43.9562 41.1046 43.7536 40.5537C43.6324 40.2245 39.8412 40.2567 39.7141 40.5879Z" fill="white"/>
</g>
<defs>
<clipPath id="clip0_2019_2290">
<rect width="43.33" height="43.33" fill="white" transform="translate(19 18)"/>
</clipPath>
</defs>
</svg>
