<svg width="80" height="80" viewBox="0 0 80 80" fill="none" xmlns="http://www.w3.org/2000/svg">
<rect width="80" height="80" rx="40" fill="#FF9A9E"/>
<path d="M37.9728 21.3331C34.8281 21.8595 32.6374 23.9767 32.314 26.8016C32.2038 27.7642 32.5206 30.0156 32.8974 30.9484L33.1026 31.4562L33.3974 30.6099C33.8876 29.2032 34.5333 28.0692 35.1546 27.5237C36.1086 26.686 36.7027 26.5733 39.4817 26.7024C42.1741 26.8275 43.0412 26.6852 44.076 25.9482C44.6888 25.5119 45.1265 25.637 45.2212 26.2757C45.2515 26.4795 45.499 27.0697 45.7713 27.5873C46.1403 28.2889 46.2696 28.7719 46.2789 29.4847C46.2859 30.0104 46.3429 30.7756 46.4059 31.1849L46.5203 31.9293L46.8372 31.2695C47.8588 29.143 48.1853 26.9895 47.7256 25.4083C47.3957 24.2737 46.838 23.7551 45.9474 23.7546C45.4535 23.7545 45.2136 23.6248 44.7032 23.0823C43.9322 22.263 43.0617 21.8024 41.6594 21.4719C40.6635 21.2369 38.9352 21.1719 37.9728 21.3331Z" fill="white"/>
<path d="M43.389 27.4502C42.8934 27.6863 42.3153 27.7254 39.8521 27.6887C36.9733 27.6459 36.8914 27.6543 36.1807 28.0709C35.6184 28.4003 35.3374 28.7361 34.9399 29.5534C34.352 30.7612 33.9106 32.3438 33.9106 33.2425C33.9106 35.3239 36.0649 38.7825 37.921 39.6811C38.9743 40.1909 40.3558 40.1914 41.4077 39.6821C43.0179 38.9027 44.7045 36.5148 45.3184 34.1459C45.6842 32.7343 45.3242 28.6726 44.751 27.7452C44.3335 27.0697 44.2328 27.0479 43.389 27.4502Z" fill="white"/>
<path d="M35.8762 40.803C35.8139 41.434 35.7233 42.1787 35.6748 42.458C35.5978 42.9006 35.8393 43.3081 37.5549 45.6315C38.6375 47.0977 39.5867 48.2974 39.6642 48.2974C39.7761 48.2974 43.1458 43.866 43.6009 43.1206C43.6626 43.0196 43.6292 42.1988 43.5266 41.2965C43.3418 39.6698 43.3374 39.6584 42.9838 39.9203C40.9534 41.4246 38.3773 41.4245 36.3464 39.9201C35.9945 39.6593 35.9879 39.6718 35.8762 40.803Z" fill="white"/>
<path d="M33.1745 44.9242C32.9094 45.675 32.719 46.3128 32.7513 46.3416C32.7838 46.3704 33.2551 46.6427 33.7984 46.9468C34.3417 47.251 34.8232 47.5963 34.8684 47.7141C34.9136 47.8317 34.6785 48.5171 34.3459 49.2367C34.0133 49.9564 33.7413 50.6426 33.7413 50.7614C33.7413 51.0077 39.4548 57.6912 39.6654 57.6912C39.8759 57.6912 45.5894 51.0077 45.5894 50.7614C45.5894 50.6426 45.3174 49.9564 44.9848 49.2367C44.6522 48.5171 44.4171 47.8317 44.4623 47.7141C44.5075 47.5963 44.989 47.251 45.5323 46.9468C46.0757 46.6427 46.5469 46.3704 46.5794 46.3416C46.6117 46.3128 46.4213 45.675 46.1562 44.9242C45.6862 43.5935 45.66 43.559 45.1204 43.5586C44.5982 43.5581 44.4347 43.7365 42.2503 46.6894C40.9375 48.4642 39.8177 49.8207 39.6654 49.8207C39.513 49.8207 38.3932 48.4642 37.0805 46.6894C34.896 43.7365 34.7325 43.5581 34.2104 43.5586C33.6708 43.559 33.6445 43.5935 33.1745 44.9242Z" fill="white"/>
<path d="M46.7742 43.6265C46.7742 43.6766 47.0039 44.3472 47.2847 45.1165C47.5655 45.8859 47.7618 46.6027 47.7208 46.7096C47.6799 46.8164 47.2026 47.1535 46.6601 47.4589C46.1178 47.7642 45.6493 48.0326 45.6193 48.0553C45.5892 48.078 45.8367 48.6856 46.1694 49.4057C46.502 50.1255 46.7742 50.8152 46.7742 50.9383C46.7742 51.0613 45.5427 52.593 44.0375 54.3419C42.5322 56.0908 41.1875 57.6551 41.0492 57.8181C40.8104 58.0994 41.1101 58.1143 47.0018 58.1143H53.206V54.3372C53.206 50.2447 53.0625 49.0309 52.4164 47.663C51.6004 45.935 49.5497 44.2025 47.8744 43.8256C47.5951 43.7628 47.2334 43.6717 47.0704 43.6233C46.9074 43.5749 46.7742 43.5764 46.7742 43.6265Z" fill="white"/>
<path d="M31.5227 43.8034C28.8797 44.5324 26.8156 46.8097 26.3097 49.5556C26.208 50.1079 26.1247 52.2597 26.1247 54.3372V58.1143H32.3289C38.2206 58.1143 38.5203 58.0994 38.2815 57.8181C38.1432 57.6551 36.7985 56.0908 35.2933 54.3419C33.7881 52.593 32.5565 51.0613 32.5565 50.9383C32.5565 50.8152 32.8287 50.1255 33.1613 49.4057C33.4941 48.6856 33.7415 48.078 33.7114 48.0553C33.6814 48.0326 33.2129 47.7642 32.6706 47.4589C32.1281 47.1535 31.6508 46.8164 31.6099 46.7096C31.5689 46.6027 31.7653 45.8859 32.0461 45.1165C32.3269 44.3472 32.5565 43.6817 32.5565 43.6379C32.5565 43.5317 32.4406 43.5504 31.5227 43.8034Z" fill="white"/>
</svg>
