<svg width="81" height="80" viewBox="0 0 81 80" fill="none" xmlns="http://www.w3.org/2000/svg">
<rect x="0.5" width="80" height="80" rx="40" fill="#7DDE7B"/>
<path d="M30.3397 21.5433C29.6793 21.7442 28.9012 22.1805 28.6383 22.4972C28.5068 22.6557 28.1156 22.9642 27.7692 23.1831C26.953 23.6983 26.6847 24.5686 26.9505 25.8397C27.1297 26.6975 27.3851 27.2942 27.505 27.1351C27.538 27.0912 27.7705 26.802 28.0219 26.4922C28.3915 26.0367 28.4789 25.7558 28.4789 25.0212C28.4789 24.5219 28.5469 24.0712 28.6302 24.0199C28.7133 23.9684 29.2172 24.1258 29.7498 24.3697C30.7532 24.8291 31.1584 24.8421 33.6632 24.4967C34.266 24.4134 34.4364 24.4665 34.9025 24.8829C35.2274 25.1734 35.5687 25.7363 35.7588 26.2952L36.0747 27.2246L36.3583 26.5488C36.9502 25.1392 36.3837 23.3647 35.0285 22.383C33.8459 21.5262 31.6741 21.1374 30.3397 21.5433Z" fill="white"/>
<path d="M29.263 25.8006C29.2026 26.1028 28.953 26.6124 28.7084 26.933C28.4452 27.2783 28.2296 27.8204 28.1796 28.2628C28.0738 29.2014 27.8499 29.3457 27.3684 28.7858C26.9603 28.3114 26.786 28.3464 26.787 28.9031C26.788 29.48 27.4305 30.3594 28.0358 30.6123C28.3846 30.758 28.6827 31.0461 28.8149 31.3652C29.1452 32.163 30.2415 33.1899 31.0083 33.4196C32.3083 33.8092 33.8364 32.976 34.559 31.4831C34.8145 30.9552 35.066 30.7062 35.5031 30.5481C36.1838 30.302 36.6036 29.634 36.6024 28.7987L36.6016 28.2401L36.1799 28.7479C35.7698 29.242 35.7515 29.2467 35.5038 28.9272C35.3638 28.7464 35.2487 28.3275 35.2482 27.9962C35.2468 27.1164 34.9499 26.1889 34.5034 25.67L34.1121 25.2148L32.9151 25.4406C31.8158 25.6481 30.6444 25.6161 29.7299 25.3536C29.4313 25.268 29.355 25.3411 29.263 25.8006Z" fill="white"/>
<path d="M29.4944 34.3033C29.4944 34.6323 29.6121 35.0193 29.7559 35.1631C30.4064 35.8136 32.3029 35.9097 33.3902 35.3475C33.8254 35.1223 33.8951 34.991 33.8951 34.3955C33.8951 33.8026 33.8531 33.7226 33.5989 33.8304C31.8505 34.5717 31.5391 34.5717 29.7906 33.8304C29.5406 33.7244 29.4944 33.7982 29.4944 34.3033Z" fill="white"/>
<path d="M24.3321 36.092C22.8133 36.7929 22.3856 37.7443 22.3856 40.4213V42.3732L28.4366 42.3722L34.4875 42.371L34.7558 41.8993C34.9904 41.4866 34.995 41.3431 34.7917 40.7578C34.1443 38.8929 34.4044 37.0746 35.4437 36.2L35.9521 35.7721H35.1991C34.7827 35.7721 34.0769 35.9399 33.6204 36.1472C32.4942 36.6589 30.8954 36.6589 29.7691 36.1472C28.6473 35.6376 25.3886 35.6044 24.3321 36.092Z" fill="white"/>
<path d="M39.6363 34.7522C38.679 34.9218 37.5839 35.4668 37.1694 35.9798C36.9976 36.1922 36.6474 36.4593 36.3913 36.5734C35.5737 36.9373 35.217 37.7264 35.3001 38.988C35.3761 40.1449 35.891 41.6459 36.0549 41.1884C36.105 41.0487 36.3219 40.7227 36.5372 40.4638C37.0213 39.8817 37.2955 38.9369 37.1669 38.2939C37.0289 37.6047 37.3808 37.5388 38.4768 38.0491C39.5057 38.528 40.5133 38.5948 42.0176 38.2841C42.54 38.1763 43.1845 38.1426 43.4501 38.2093C44.1648 38.3885 44.8617 39.2389 45.1785 40.3184L45.4586 41.273L45.7108 40.6806C46.9383 37.7976 44.8744 35.0741 41.1732 34.6931C40.7543 34.6499 40.0627 34.6765 39.6363 34.7522Z" fill="white"/>
<path d="M38.048 38.9537C37.9981 39.0036 37.9573 39.1871 37.9573 39.3616C37.9573 39.7632 37.3888 40.8876 37.0387 41.178C36.8627 41.3241 36.7725 41.6807 36.7725 42.23C36.7725 43.2675 36.3968 43.5099 35.8506 42.8248C35.3832 42.2388 35.2492 42.255 35.2492 42.8977C35.2492 43.7753 35.7185 44.5321 36.468 44.8628C36.9453 45.0733 37.2454 45.3619 37.4851 45.8408C39.0182 48.9021 42.2944 48.869 43.8724 45.7758C44.0814 45.3662 44.4113 45.062 44.8629 44.8628C45.6123 44.5321 46.0817 43.7753 46.0817 42.8977C46.0817 42.2542 46.0059 42.2466 45.493 42.8386C44.9668 43.4459 44.8112 43.2618 44.599 41.7808C44.2469 39.324 43.7216 38.7785 42.0415 39.1255C40.7878 39.3844 39.5597 39.37 38.7674 39.0872C38.4218 38.9638 38.098 38.9037 38.048 38.9537Z" fill="white"/>
<path d="M38.2958 49.0545C38.2958 49.735 38.3515 49.8418 38.8459 50.1089C39.2311 50.3171 39.7765 50.4062 40.6654 50.4062C41.5544 50.4062 42.0997 50.3171 42.485 50.1089C42.9794 49.8418 43.035 49.735 43.035 49.0545C43.035 48.6379 43.0053 48.2972 42.9689 48.2972C42.9325 48.2972 42.5708 48.4478 42.1649 48.632C41.7592 48.8161 41.0844 48.9668 40.6654 48.9668C40.2465 48.9668 39.5717 48.8161 39.166 48.632C38.7601 48.4478 38.3984 48.2972 38.362 48.2972C38.3256 48.2972 38.2958 48.6379 38.2958 49.0545Z" fill="white"/>
<path d="M33.4185 50.5092C32.1343 50.7619 31.0792 51.5967 30.6027 52.7372C30.4099 53.1982 30.3407 53.97 30.3407 55.6545V57.9449H40.6654H50.9902L50.9864 55.6176C50.9822 52.9741 50.7823 52.2771 49.7871 51.4381C48.8514 50.6492 48.1818 50.4578 46.0395 50.3665C44.1208 50.2848 44.014 50.2988 42.9929 50.7679C41.5107 51.4488 39.8257 51.4578 38.4023 50.7926C37.5213 50.3809 37.2237 50.3303 35.7788 50.3469C34.8824 50.3571 33.8203 50.43 33.4185 50.5092Z" fill="white"/>
<path d="M46.2553 36.6849C46.9571 37.9283 47.0884 39.2145 46.6463 40.5166C46.3574 41.3674 46.352 41.4947 46.5859 41.9126L46.8433 42.3725L52.8943 42.3728L58.9453 42.3732V40.378C58.9453 37.9977 58.6479 37.1998 57.4504 36.3667C56.7451 35.876 56.6369 35.8546 54.5998 35.8002C52.7349 35.7506 52.382 35.787 51.6411 36.1057C50.3331 36.6683 49.3841 36.7164 48.1974 36.2797C47.6389 36.0742 46.853 35.8678 46.451 35.821L45.72 35.7362L46.2553 36.6849Z" fill="white"/>
<path d="M47.1844 25.7746C47.1206 26.0645 46.8748 26.532 46.638 26.8135C46.3616 27.1418 46.1763 27.61 46.1201 28.1212C46.0096 29.1286 45.7829 29.2725 45.1948 28.709L44.7276 28.2615V28.8094C44.7276 29.6352 45.1503 30.3032 45.8278 30.5481C46.2648 30.7062 46.5163 30.9552 46.7719 31.4831C47.4925 32.9716 49.0227 33.8091 50.3148 33.422C51.1049 33.1852 52.0275 32.3238 52.5159 31.3668C52.7044 30.997 52.9613 30.6944 53.0864 30.6944C53.8127 30.6944 54.8745 28.9255 54.4205 28.4715C54.2922 28.3432 54.2083 28.3894 54.1318 28.6306C53.9986 29.0504 53.6077 29.2196 53.3951 28.9495C53.308 28.8386 53.1853 28.2909 53.1226 27.7324C52.9991 26.633 52.5939 25.6554 52.1501 25.3863C51.9602 25.2712 51.4934 25.2886 50.6862 25.441C49.5806 25.6495 48.5264 25.6207 47.6641 25.3582C47.3586 25.2653 47.2816 25.3321 47.1844 25.7746Z" fill="white"/>
<path d="M47.4357 34.3955C47.4357 34.991 47.5055 35.1223 47.9406 35.3475C49.028 35.9097 50.9245 35.8136 51.5749 35.1631C51.7188 35.0193 51.8365 34.6323 51.8365 34.3033C51.8365 33.7982 51.7902 33.7244 51.5403 33.8304C49.7918 34.5717 49.4804 34.5717 47.732 33.8304C47.4777 33.7226 47.4357 33.8026 47.4357 34.3955Z" fill="white"/>
<path d="M47.8608 21.646C47.4894 21.7875 46.9149 22.1675 46.5842 22.4905C46.2535 22.8136 45.9041 23.0778 45.8078 23.0778C45.7117 23.0778 45.4585 23.2635 45.2452 23.4904C44.7222 24.0471 44.6163 25.1468 44.9686 26.359L45.2481 27.3202L45.6398 26.8492C46.2572 26.1068 46.4202 25.6947 46.4202 24.8761C46.4202 24.4566 46.4906 24.0698 46.5766 24.0167C46.6627 23.9635 47.093 24.1113 47.5327 24.3452C48.4317 24.823 49.3193 24.8841 50.8316 24.5717C52.3892 24.2499 53.2162 24.7834 53.7078 26.4267C53.9471 27.2266 54.0857 27.1525 54.387 26.063C55.0297 23.7399 52.893 21.5704 49.8367 21.4429C48.9638 21.4065 48.3139 21.4734 47.8608 21.646Z" fill="white"/>
</svg>
