<svg width="81" height="80" viewBox="0 0 81 80" fill="none" xmlns="http://www.w3.org/2000/svg">
<rect x="0.5" width="80" height="80" rx="40" fill="#8D7BDE"/>
<g clip-path="url(#clip0_2019_2309)">
<path d="M46.4025 37.634C47.7163 37.634 47.9378 37.4837 48.1006 36.4827C48.1406 36.2367 48.18 36.0839 48.2468 35.9909C48.4169 35.2002 48.3586 34.2475 48.2448 33.4883C48.1595 33.2676 48.0949 32.9474 48.051 32.5277C47.8385 30.4937 46.7027 28.7889 44.9414 27.8607C43.703 27.2079 42.5634 26.9708 40.6646 26.9708C37.5494 26.9708 35.5588 27.8364 34.2291 29.7689C33.4778 30.861 33.2173 32.1228 33.2173 34.67C33.2173 37.5213 33.2818 37.634 34.9158 37.634H36.0872L36.1333 34.4604L36.1793 31.2868H36.6024H37.0256L37.0716 34.4604L37.1177 37.634H40.6646H44.2116L44.2576 34.4604L44.3037 31.2868H44.7268H45.15L45.196 34.4604L45.242 37.634H46.4025Z" fill="white"/>
<path d="M39.5155 19.3662C38.3333 19.7281 37.2727 21.2996 37.2832 22.6743C37.2927 23.9302 38.5317 25.4395 39.8431 25.7926C41.0744 26.1241 42.2609 25.7335 43.1712 24.6966C44.9633 22.6555 43.6867 19.4718 40.9938 19.2662C40.4869 19.2274 39.8217 19.2724 39.5155 19.3662Z" fill="white"/>
<path d="M23.6407 50.4781C22.2199 51.3446 22.6365 53.6199 24.2759 53.9479C25.0227 54.0972 25.9445 53.6079 26.3529 52.845C26.6442 52.3011 26.6577 52.1496 26.4707 51.5252C26.1037 50.3008 24.7519 49.8006 23.6407 50.4781Z" fill="white"/>
<path d="M22.6807 55.3091C21.0089 55.9056 20.1342 57.2129 20.2183 58.9891L20.2691 60.0607H24.6698H29.0705L29.1236 59.2171C29.2441 57.307 28.2848 55.8326 26.5949 55.3308C25.5184 55.0112 23.5462 55.0002 22.6807 55.3091Z" fill="white"/>
<path d="M39.884 50.3163C38.8521 50.7583 38.4492 52.3721 39.1489 53.2618C39.5914 53.8242 40.4747 54.0772 41.2494 53.8633C43.1446 53.34 42.8806 50.4443 40.9185 50.2353C40.5462 50.1957 40.0807 50.232 39.884 50.3163Z" fill="white"/>
<path d="M55.6108 50.4902C55.2396 50.7166 55.0038 51.0411 54.8586 51.5252C54.6716 52.1496 54.6851 52.3011 54.9764 52.845C55.6192 54.0458 57.1003 54.3267 58.0071 53.42C59.6151 51.8119 57.5613 49.3008 55.6108 50.4902Z" fill="white"/>
<path d="M54.6924 55.3225C53.0589 55.8455 52.0887 57.3647 52.2057 59.2171L52.2588 60.0607H56.6595H61.0602V58.7784C61.0602 57.6652 60.9993 57.404 60.5985 56.7989C60.3446 56.4155 59.7771 55.891 59.3375 55.6334C58.6488 55.2297 58.3258 55.1585 57.0063 55.1185C56.0006 55.0881 55.2061 55.1581 54.6924 55.3225Z" fill="white"/>
<path d="M36.2639 60.1331L37.9122 60.1815H43.4171L45.0653 60.1331V58.9654C45.0653 57.6135 44.8837 57.0335 44.2505 56.3638C43.3332 55.3934 42.6192 55.1522 40.6646 55.1522C38.71 55.1522 37.9961 55.3934 37.0787 56.3638C36.4455 57.0335 36.2639 57.6135 36.2639 58.9654V60.1331Z" fill="white"/>
<path fill-rule="evenodd" clip-rule="evenodd" d="M48.051 32.5277C48.1148 32.7668 48.187 33.1026 48.2448 33.4883C48.1595 33.2676 48.0949 32.9474 48.051 32.5277ZM48.2468 35.9909C48.2096 36.1638 48.1615 36.329 48.1006 36.4827C48.1406 36.2367 48.18 36.0839 48.2468 35.9909ZM40.3684 40.1157C40.2227 40.1746 40.1569 40.6444 40.1569 41.6256V43.0503H32.3202C26.4507 43.0503 24.4326 43.1012 24.2805 43.2534C24.1468 43.3871 24.0774 44.1025 24.0774 45.3484C24.0774 46.868 24.1302 47.2841 24.3455 47.4628C24.5396 47.624 24.6913 47.6363 24.8956 47.5078C25.1186 47.3675 25.1877 47.0072 25.2263 45.7828L25.2749 44.2351H32.7097H40.1447L40.1931 45.8853C40.241 47.5199 40.2456 47.5356 40.6646 47.5356C41.0837 47.5356 41.0883 47.5199 41.1362 45.8853L41.1846 44.2351H48.6196H56.0544L56.103 45.7828C56.1416 47.0072 56.2106 47.3675 56.4337 47.5078C56.638 47.6363 56.7897 47.624 56.9838 47.4628C57.1991 47.2841 57.2519 46.868 57.2519 45.3484C57.2519 44.1025 57.1825 43.3871 57.0488 43.2534C56.8966 43.1012 54.8786 43.0503 49.009 43.0503H41.1724V41.6297C41.1724 40.4904 41.1194 40.1888 40.9046 40.1064C40.7574 40.0498 40.6242 40.0097 40.6084 40.017C40.5929 40.0243 40.4849 40.0688 40.3684 40.1157ZM43.3457 61.3291C43.3457 61.3291 43.3457 61.3291 43.3457 61.3291V61.3291ZM37.9665 61.3291C37.9722 61.3291 37.9779 61.3291 37.9835 61.3291H37.9665Z" fill="white"/>
</g>
<defs>
<clipPath id="clip0_2019_2309">
<rect width="43.33" height="43.33" fill="white" transform="translate(19 18)"/>
</clipPath>
</defs>
</svg>
