<svg width="80" height="80" viewBox="0 0 80 80" fill="none" xmlns="http://www.w3.org/2000/svg">
<rect width="80" height="80" rx="40" fill="#FDA085"/>
<g clip-path="url(#clip0_2019_2314)">
<path d="M39.8346 25.8182C38.5614 26.2876 38.1219 26.36 36.0128 26.4482C33.7345 26.5433 33.6022 26.5687 33.0069 27.023C32.6643 27.2844 32.2265 27.8074 32.0337 28.1851C31.7033 28.8327 31.6869 29.0947 31.7449 32.7876C31.8042 36.5463 31.8253 36.7575 32.2755 38.0573C32.5335 38.802 33.0096 39.7759 33.3337 40.2216C34.0304 41.1796 36.2685 42.8833 37.7683 43.5974C38.6804 44.0317 38.9839 44.0947 39.884 44.037C41.169 43.9544 42.0702 43.5314 43.6429 42.2726C45.5403 40.7542 46.031 40.2079 46.5932 38.9879C47.429 37.1746 47.6142 35.9421 47.6176 32.1688C47.6216 27.5272 47.5441 27.3888 44.2851 26.2097C41.4987 25.202 41.5053 25.2025 39.8346 25.8182Z" fill="white"/>
<path d="M33.9634 19.8746C32.6191 20.3004 31.2402 21.5223 30.5752 22.8765C30.1131 23.8174 30.1016 23.9117 30.075 26.9709C30.0574 29.0086 30.093 29.7716 30.1769 29.1558C30.3342 28.001 31.0726 26.5948 31.8642 25.9421C32.7914 25.1779 33.7357 24.9398 35.8391 24.9398C37.5434 24.9398 37.8616 24.8865 39.467 24.3322C40.8112 23.8681 41.3723 23.7506 41.8425 23.8352C43.0405 24.0509 46.5051 25.3516 47.2515 25.866C48.3579 26.6285 49.0185 27.891 49.1544 29.5025C49.2318 30.4217 49.269 29.8887 49.2875 27.5988C49.3105 24.7345 49.2799 24.3533 48.9784 23.7624C48.6179 23.056 48.0069 22.5482 47.1973 22.2826C46.7298 22.1291 46.6877 22.0499 46.666 21.2852C46.6532 20.8284 46.634 20.3612 46.6237 20.2473C46.6134 20.1332 46.3801 19.9238 46.1056 19.7818C45.6879 19.5659 44.7394 19.5251 40.3085 19.533C35.5307 19.5417 34.908 19.5752 33.9634 19.8746Z" fill="white"/>
<path d="M49.313 47.3517C49.313 47.4101 49.6558 48.1403 50.0747 48.9744C50.4936 49.8085 50.8364 50.6421 50.8364 50.8269C50.8364 51.2987 50.3359 51.5133 49.2352 51.5133H48.2889L48.547 52.0126C48.689 52.2873 48.8053 52.6541 48.8053 52.8279C48.8053 53.0241 47.4629 54.3585 45.2635 56.3483C43.3157 58.1109 41.7162 59.6102 41.7091 59.68C41.7022 59.7497 45.5706 59.8069 50.3057 59.8069C58.7593 59.8069 58.9232 59.8005 59.361 59.456C59.6769 59.2077 59.8065 58.9484 59.805 58.5674C59.8014 57.5717 58.8199 52.2167 58.5285 51.6023C58.0207 50.5324 57.3086 50.1318 53.4202 48.7283C51.3941 47.9971 49.6411 47.3643 49.5246 47.3221C49.4083 47.28 49.313 47.2933 49.313 47.3517Z" fill="white"/>
<path d="M42.9887 47.0169C41.9772 47.7053 41.0736 48.3448 40.9805 48.4379C40.8674 48.5509 41.2235 49.1757 42.0495 50.3141C42.7308 51.253 43.3298 52.0209 43.3809 52.0209C43.4674 52.0207 44.206 50.7293 45.9206 47.5794L46.634 46.269L46.154 46.086C45.0608 45.6695 44.8983 45.7172 42.9887 47.0169Z" fill="white"/>
<path d="M45.7161 50.9666C44.7153 52.8032 43.581 54.8732 43.1954 55.5665L42.4943 56.827L43.1532 56.2948C43.5156 56.002 44.5738 55.0415 45.5047 54.16L47.1973 52.5574L46.8165 51.8748C46.0643 50.5267 46.4167 49.99 48.0546 49.99C48.4674 49.99 48.8053 49.9534 48.8053 49.9085C48.8053 49.7381 47.7127 47.6205 47.6264 47.6237C47.5766 47.6256 46.717 49.1298 45.7161 50.9666Z" fill="white"/>
<path d="M39.1811 50.3329L38.8023 50.8452L39.1802 51.3758L39.558 51.9065L39.1885 54.2916C38.9853 55.6036 38.8191 56.852 38.8191 57.0659C38.8191 57.4337 39.4841 58.788 39.6653 58.7893C39.7119 58.7897 39.9453 58.4445 40.1839 58.0224L40.6178 57.2548L40.1985 54.5762L39.7791 51.8973L40.1569 51.3667L40.5347 50.8362L40.1731 50.3285C39.9742 50.0492 39.7549 49.8207 39.6857 49.8207C39.6164 49.8207 39.3893 50.0512 39.1811 50.3329Z" fill="white"/>
<path fill-rule="evenodd" clip-rule="evenodd" d="M18.0836 57.9839C18.0667 58.1286 18.0545 58.2548 18.0469 58.3667C18.0496 58.1358 18.0638 57.9984 18.0836 57.9839Z" fill="white"/>
<path d="M41.3644 52.3103C41.3608 52.4229 41.4449 53.0997 41.5512 53.8145L41.7445 55.1141L42.1428 54.4562C42.3618 54.0943 42.5402 53.7221 42.5393 53.629C42.537 53.3783 41.3716 52.0708 41.3644 52.3103Z" fill="white"/>
<path d="M37.3072 52.8513L36.7262 53.5863L37.1373 54.3612L37.5483 55.1361L37.7641 53.9594C38.0923 52.1712 38.0073 51.9654 37.3072 52.8513Z" fill="white"/>
<path d="M33.4028 46.0049C33.0555 46.1344 32.8332 46.3216 32.8656 46.4575C32.9492 46.8093 35.8347 52.021 35.9457 52.021C36.0541 52.021 38.4805 48.7148 38.4805 48.5672C38.4805 48.4047 34.4392 45.7578 34.2117 45.7714C34.0927 45.7785 33.7286 45.8836 33.4028 46.0049Z" fill="white"/>
<path d="M31.0491 48.7395C30.761 49.3551 30.5254 49.8882 30.5254 49.9243C30.5254 49.9605 30.8633 49.99 31.2761 49.99C32.9136 49.99 33.2667 50.5272 32.5142 51.8738L32.1334 52.5552L33.8259 54.1557C34.7569 55.036 35.8151 55.9971 36.1774 56.2916L36.8364 56.827L36.1353 55.5665C35.7497 54.8732 34.6154 52.8032 33.6145 50.9666C32.6137 49.1298 31.7449 47.6256 31.6838 47.6237C31.6229 47.6219 31.3372 48.1241 31.0491 48.7395Z" fill="white"/>
<path d="M25.9949 48.6912C22.0351 50.1447 21.2983 50.557 20.8058 51.595C20.5116 52.2148 19.5292 57.5656 19.5257 58.5674C19.5242 58.9484 19.6538 59.2077 19.9697 59.456C20.4075 59.8005 20.5714 59.8069 29.0249 59.8069C33.7601 59.8069 37.629 59.7497 37.6226 59.68C37.6163 59.6102 36.0168 58.1071 34.0682 56.3397C31.9396 54.4089 30.5254 53.0036 30.5254 52.8191C30.5254 52.6502 30.6417 52.2873 30.7837 52.0126L31.0418 51.5133H30.0955C28.9948 51.5133 28.4943 51.2987 28.4943 50.8269C28.4943 50.6421 28.8371 49.8085 29.256 48.9744C30.0544 47.3847 30.0963 47.2737 29.8907 47.2949C29.821 47.302 28.0678 47.9304 25.9949 48.6912Z" fill="white"/>
<path d="M35.0954 44.1475C35.0954 44.2856 36.1236 45.0867 37.3804 45.9278L39.6653 47.457L41.9503 45.9278C43.2071 45.0867 44.2353 44.2856 44.2353 44.1475C44.2353 43.8105 44.2214 43.8151 43.2695 44.4556C40.9305 46.0297 38.197 45.9416 35.7463 44.2135C35.2039 43.831 35.0954 43.82 35.0954 44.1475Z" fill="white"/>
</g>
<defs>
<clipPath id="clip0_2019_2314">
<rect width="43.33" height="43.33" fill="white" transform="translate(18 18)"/>
</clipPath>
</defs>
</svg>
