<svg width="128" height="16" viewBox="0 0 128 16" fill="none" xmlns="http://www.w3.org/2000/svg">
<path d="M127.707 8.70712C128.098 8.31659 128.098 7.68343 127.707 7.2929L121.343 0.928943C120.953 0.538418 120.319 0.538418 119.929 0.928943C119.538 1.31947 119.538 1.95263 119.929 2.34316L125.586 8.00001L119.929 13.6569C119.538 14.0474 119.538 14.6806 119.929 15.0711C120.319 15.4616 120.953 15.4616 121.343 15.0711L127.707 8.70712ZM-8.74228e-08 9L6.35 9L6.35 7L8.74228e-08 7L-8.74228e-08 9ZM19.05 9L31.75 9L31.75 7L19.05 7L19.05 9ZM44.45 9L57.15 9L57.15 7L44.45 7L44.45 9ZM69.85 9.00001L82.55 9.00001L82.55 7.00001L69.85 7.00001L69.85 9.00001ZM95.25 9.00001L107.95 9.00001L107.95 7.00001L95.25 7.00001L95.25 9.00001ZM120.65 9.00001L127 9.00001L127 7.00001L120.65 7.00001L120.65 9.00001ZM127.707 8.70712C128.098 8.31659 128.098 7.68343 127.707 7.2929L121.343 0.928943C120.953 0.538418 120.319 0.538418 119.929 0.928943C119.538 1.31947 119.538 1.95263 119.929 2.34316L125.586 8.00001L119.929 13.6569C119.538 14.0474 119.538 14.6806 119.929 15.0711C120.319 15.4616 120.953 15.4616 121.343 15.0711L127.707 8.70712ZM-8.74228e-08 9L6.35 9L6.35 7L8.74228e-08 7L-8.74228e-08 9ZM19.05 9L31.75 9L31.75 7L19.05 7L19.05 9ZM44.45 9L57.15 9L57.15 7L44.45 7L44.45 9ZM69.85 9.00001L82.55 9.00001L82.55 7.00001L69.85 7.00001L69.85 9.00001ZM95.25 9.00001L107.95 9.00001L107.95 7.00001L95.25 7.00001L95.25 9.00001ZM120.65 9.00001L127 9.00001L127 7.00001L120.65 7.00001L120.65 9.00001Z" fill="white"/>
</svg>
