<svg width="121" height="16" viewBox="0 0 121 16" fill="none" xmlns="http://www.w3.org/2000/svg">
<path d="M120.707 8.70712C121.098 8.31659 121.098 7.68343 120.707 7.2929L114.343 0.928942C113.953 0.538418 113.319 0.538418 112.929 0.928942C112.538 1.31947 112.538 1.95263 112.929 2.34316L118.586 8.00001L112.929 13.6569C112.538 14.0474 112.538 14.6806 112.929 15.0711C113.319 15.4616 113.953 15.4616 114.343 15.0711L120.707 8.70712ZM-8.74228e-08 9L6 9L6 7L8.74228e-08 7L-8.74228e-08 9ZM18 9L30 9L30 7L18 7L18 9ZM42 9L54 9L54 7L42 7L42 9ZM66 9.00001L78 9.00001L78 7.00001L66 7.00001L66 9.00001ZM90 9.00001L102 9.00001L102 7.00001L90 7.00001L90 9.00001ZM114 9.00001L120 9.00001L120 7.00001L114 7.00001L114 9.00001ZM120.707 8.70712C121.098 8.31659 121.098 7.68343 120.707 7.2929L114.343 0.928942C113.953 0.538418 113.319 0.538418 112.929 0.928942C112.538 1.31947 112.538 1.95263 112.929 2.34316L118.586 8.00001L112.929 13.6569C112.538 14.0474 112.538 14.6806 112.929 15.0711C113.319 15.4616 113.953 15.4616 114.343 15.0711L120.707 8.70712ZM-8.74228e-08 9L6 9L6 7L8.74228e-08 7L-8.74228e-08 9ZM18 9L30 9L30 7L18 7L18 9ZM42 9L54 9L54 7L42 7L42 9ZM66 9.00001L78 9.00001L78 7.00001L66 7.00001L66 9.00001ZM90 9.00001L102 9.00001L102 7.00001L90 7.00001L90 9.00001ZM114 9.00001L120 9.00001L120 7.00001L114 7.00001L114 9.00001Z" fill="white"/>
</svg>
