<svg width="976" height="380" viewBox="0 0 976 380" fill="none" xmlns="http://www.w3.org/2000/svg">
<g clip-path="url(#clip0_0_105)">
<rect width="976" height="380" fill="white"/>
<line y1="-0.5" x2="280.832" y2="-0.5" transform="matrix(0.707245 -0.706968 0.707245 0.706968 140.954 290.337)" stroke="#DBDBDB"/>
<line y1="-0.5" x2="108.709" y2="-0.5" transform="matrix(0.707245 -0.706968 0.707245 0.706968 296.858 286.067)" stroke="#DBDBDB"/>
<line y1="-0.5" x2="220.458" y2="-0.5" transform="matrix(0.697495 -0.716589 0.716862 0.697215 -10.6783 290.337)" stroke="#DBDBDB"/>
<line y1="-0.5" x2="280.832" y2="-0.5" transform="matrix(0.707245 -0.706968 0.707245 0.706968 179.396 175.056)" stroke="#DBDBDB"/>
<line y1="-0.5" x2="280.832" y2="-0.5" transform="matrix(0.707245 -0.706968 0.707245 0.706968 486.932 175.056)" stroke="#DBDBDB"/>
<line y1="-0.5" x2="540.526" y2="-0.5" transform="matrix(0.707245 -0.706968 0.707245 0.706968 127.214 380.926)" stroke="#DBDBDB"/>
<line y1="-0.5" x2="540.526" y2="-0.5" transform="matrix(0.707245 -0.706968 0.707245 0.706968 -181.532 380.926)" stroke="#DBDBDB"/>
<ellipse cx="66.2057" cy="55.5056" rx="6.407" ry="6.40449" fill="#F2F1F1"/>
<ellipse cx="104.648" cy="55.5056" rx="6.407" ry="6.40449" fill="#F2F1F1"/>
<ellipse cx="143.09" cy="55.5056" rx="6.407" ry="6.40449" fill="#F2F1F1"/>
<ellipse cx="181.532" cy="55.5056" rx="6.407" ry="6.40449" fill="#F2F1F1"/>
<ellipse cx="219.974" cy="55.5056" rx="6.407" ry="6.40449" fill="#F2F1F1"/>
<ellipse cx="258.416" cy="55.5056" rx="6.407" ry="6.40449" fill="#F2F1F1"/>
<ellipse cx="296.858" cy="55.5056" rx="6.407" ry="6.40449" fill="#F2F1F1"/>
<ellipse cx="335.3" cy="55.5056" rx="6.407" ry="6.40449" fill="#F2F1F1"/>
<ellipse cx="373.742" cy="55.5056" rx="6.407" ry="6.40449" fill="#F2F1F1"/>
<ellipse cx="412.184" cy="55.5056" rx="6.407" ry="6.40449" fill="#F2F1F1"/>
<ellipse cx="450.626" cy="55.5056" rx="6.407" ry="6.40449" fill="#F2F1F1"/>
<ellipse cx="489.068" cy="55.5056" rx="6.407" ry="6.40449" fill="#F2F1F1"/>
<ellipse cx="527.51" cy="55.5056" rx="6.407" ry="6.40449" fill="#F2F1F1"/>
<ellipse cx="565.952" cy="55.5056" rx="6.407" ry="6.40449" fill="#F2F1F1"/>
<ellipse cx="604.394" cy="55.5056" rx="6.407" ry="6.40449" fill="#F2F1F1"/>
<ellipse cx="642.836" cy="55.5056" rx="6.407" ry="6.40449" fill="#F2F1F1"/>
<ellipse cx="681.278" cy="55.5056" rx="6.407" ry="6.40449" fill="#F2F1F1"/>
<ellipse cx="719.72" cy="55.5056" rx="6.407" ry="6.40449" fill="#F2F1F1"/>
<ellipse cx="758.162" cy="55.5056" rx="6.407" ry="6.40449" fill="#F2F1F1"/>
<ellipse cx="796.604" cy="55.5056" rx="6.407" ry="6.40449" fill="#F2F1F1"/>
<ellipse cx="835.046" cy="55.5056" rx="6.407" ry="6.40449" fill="#F2F1F1"/>
<ellipse cx="873.488" cy="55.5056" rx="6.407" ry="6.40449" fill="#F2F1F1"/>
<ellipse cx="911.93" cy="55.5056" rx="6.407" ry="6.40449" fill="#F2F1F1"/>
<ellipse cx="66.2057" cy="93.9326" rx="6.407" ry="6.40449" fill="#F2F1F1"/>
<ellipse cx="104.648" cy="93.9326" rx="6.407" ry="6.40449" fill="#F2F1F1"/>
<ellipse cx="143.09" cy="93.9326" rx="6.407" ry="6.40449" fill="#F2F1F1"/>
<ellipse cx="181.532" cy="93.9326" rx="6.407" ry="6.40449" fill="#F2F1F1"/>
<ellipse cx="219.974" cy="93.9326" rx="6.407" ry="6.40449" fill="#F2F1F1"/>
<ellipse cx="258.416" cy="93.9326" rx="6.407" ry="6.40449" fill="#F2F1F1"/>
<ellipse cx="296.858" cy="93.9326" rx="6.407" ry="6.40449" fill="#F2F1F1"/>
<ellipse cx="335.3" cy="93.9326" rx="6.407" ry="6.40449" fill="#F2F1F1"/>
<ellipse cx="373.742" cy="93.9326" rx="6.407" ry="6.40449" fill="#F2F1F1"/>
<ellipse cx="412.184" cy="93.9326" rx="6.407" ry="6.40449" fill="#F2F1F1"/>
<ellipse cx="450.626" cy="93.9326" rx="6.407" ry="6.40449" fill="#F2F1F1"/>
<ellipse cx="489.068" cy="93.9326" rx="6.407" ry="6.40449" fill="#F2F1F1"/>
<ellipse cx="527.51" cy="93.9326" rx="6.407" ry="6.40449" fill="#F2F1F1"/>
<ellipse cx="565.952" cy="93.9326" rx="6.407" ry="6.40449" fill="#F2F1F1"/>
<ellipse cx="604.394" cy="93.9326" rx="6.407" ry="6.40449" fill="#F2F1F1"/>
<ellipse cx="642.836" cy="93.9326" rx="6.407" ry="6.40449" fill="#F2F1F1"/>
<ellipse cx="681.278" cy="93.9326" rx="6.407" ry="6.40449" fill="#F2F1F1"/>
<ellipse cx="719.72" cy="93.9326" rx="6.407" ry="6.40449" fill="#F2F1F1"/>
<ellipse cx="758.162" cy="93.9326" rx="6.407" ry="6.40449" fill="#F2F1F1"/>
<ellipse cx="796.604" cy="93.9326" rx="6.407" ry="6.40449" fill="#F2F1F1"/>
<ellipse cx="835.046" cy="93.9326" rx="6.407" ry="6.40449" fill="#F2F1F1"/>
<ellipse cx="873.488" cy="93.9326" rx="6.407" ry="6.40449" fill="#F2F1F1"/>
<ellipse cx="911.93" cy="93.9326" rx="6.407" ry="6.40449" fill="#F2F1F1"/>
<ellipse cx="66.2057" cy="132.36" rx="6.407" ry="6.40449" fill="#F2F1F1"/>
<ellipse cx="104.648" cy="132.36" rx="6.407" ry="6.40449" fill="#F2F1F1"/>
<ellipse cx="143.09" cy="132.36" rx="6.407" ry="6.40449" fill="#F2F1F1"/>
<ellipse cx="181.532" cy="132.36" rx="6.407" ry="6.40449" fill="#F2F1F1"/>
<ellipse cx="219.974" cy="132.36" rx="6.407" ry="6.40449" fill="#F2F1F1"/>
<ellipse cx="258.416" cy="132.36" rx="6.407" ry="6.40449" fill="#F2F1F1"/>
<ellipse cx="296.858" cy="132.36" rx="6.407" ry="6.40449" fill="#F2F1F1"/>
<ellipse cx="335.3" cy="132.36" rx="6.407" ry="6.40449" fill="#F2F1F1"/>
<ellipse cx="373.742" cy="132.36" rx="6.407" ry="6.40449" fill="#F2F1F1"/>
<ellipse cx="412.184" cy="132.36" rx="6.407" ry="6.40449" fill="#F2F1F1"/>
<ellipse cx="450.626" cy="132.36" rx="6.407" ry="6.40449" fill="#F2F1F1"/>
<ellipse cx="489.068" cy="132.36" rx="6.407" ry="6.40449" fill="#F2F1F1"/>
<ellipse cx="527.51" cy="132.36" rx="6.407" ry="6.40449" fill="#F2F1F1"/>
<ellipse cx="565.952" cy="132.36" rx="6.407" ry="6.40449" fill="#F2F1F1"/>
<ellipse cx="604.394" cy="132.36" rx="6.407" ry="6.40449" fill="#F2F1F1"/>
<ellipse cx="642.836" cy="132.36" rx="6.407" ry="6.40449" fill="#F2F1F1"/>
<ellipse cx="681.278" cy="132.36" rx="6.407" ry="6.40449" fill="#F2F1F1"/>
<ellipse cx="719.72" cy="132.36" rx="6.407" ry="6.40449" fill="#F2F1F1"/>
<ellipse cx="758.162" cy="132.36" rx="6.407" ry="6.40449" fill="#F2F1F1"/>
<ellipse cx="796.604" cy="132.36" rx="6.407" ry="6.40449" fill="#F2F1F1"/>
<ellipse cx="835.046" cy="132.36" rx="6.407" ry="6.40449" fill="#F2F1F1"/>
<ellipse cx="873.488" cy="132.36" rx="6.407" ry="6.40449" fill="#F2F1F1"/>
<ellipse cx="911.93" cy="132.36" rx="6.407" ry="6.40449" fill="#F2F1F1"/>
<ellipse cx="66.2057" cy="170.787" rx="6.407" ry="6.40449" fill="#F2F1F1"/>
<ellipse cx="104.648" cy="170.787" rx="6.407" ry="6.40449" fill="#F2F1F1"/>
<ellipse cx="143.09" cy="170.787" rx="6.407" ry="6.40449" fill="#F2F1F1"/>
<ellipse cx="181.532" cy="170.787" rx="6.407" ry="6.40449" fill="#F2F1F1"/>
<ellipse cx="219.974" cy="170.787" rx="6.407" ry="6.40449" fill="#F2F1F1"/>
<ellipse cx="258.416" cy="170.787" rx="6.407" ry="6.40449" fill="#F2F1F1"/>
<ellipse cx="296.858" cy="170.787" rx="6.407" ry="6.40449" fill="#F2F1F1"/>
<ellipse cx="335.3" cy="170.787" rx="6.407" ry="6.40449" fill="#F2F1F1"/>
<ellipse cx="373.742" cy="170.787" rx="6.407" ry="6.40449" fill="#F2F1F1"/>
<ellipse cx="412.184" cy="170.787" rx="6.407" ry="6.40449" fill="#F2F1F1"/>
<ellipse cx="450.626" cy="170.787" rx="6.407" ry="6.40449" fill="#F2F1F1"/>
<ellipse cx="489.068" cy="170.787" rx="6.407" ry="6.40449" fill="#F2F1F1"/>
<ellipse cx="527.51" cy="170.787" rx="6.407" ry="6.40449" fill="#F2F1F1"/>
<ellipse cx="565.952" cy="170.787" rx="6.407" ry="6.40449" fill="#F2F1F1"/>
<ellipse cx="604.394" cy="170.787" rx="6.407" ry="6.40449" fill="#F2F1F1"/>
<ellipse cx="642.836" cy="170.787" rx="6.407" ry="6.40449" fill="#F2F1F1"/>
<ellipse cx="681.278" cy="170.787" rx="6.407" ry="6.40449" fill="#F2F1F1"/>
<ellipse cx="66.2057" cy="209.213" rx="6.407" ry="6.40449" fill="#F2F1F1"/>
<ellipse cx="104.648" cy="209.213" rx="6.407" ry="6.40449" fill="#F2F1F1"/>
<ellipse cx="143.09" cy="209.213" rx="6.407" ry="6.40449" fill="#F2F1F1"/>
<ellipse cx="181.532" cy="209.213" rx="6.407" ry="6.40449" fill="#F2F1F1"/>
<ellipse cx="219.974" cy="209.213" rx="6.407" ry="6.40449" fill="#F2F1F1"/>
<ellipse cx="258.416" cy="209.213" rx="6.407" ry="6.40449" fill="#F2F1F1"/>
<ellipse cx="296.858" cy="209.213" rx="6.407" ry="6.40449" fill="#F2F1F1"/>
<ellipse cx="335.3" cy="209.213" rx="6.407" ry="6.40449" fill="#F2F1F1"/>
<ellipse cx="373.742" cy="209.213" rx="6.407" ry="6.40449" fill="#F2F1F1"/>
<ellipse cx="412.184" cy="209.213" rx="6.407" ry="6.40449" fill="#F2F1F1"/>
<ellipse cx="450.626" cy="209.213" rx="6.407" ry="6.40449" fill="#F2F1F1"/>
<ellipse cx="489.068" cy="209.213" rx="6.407" ry="6.40449" fill="#F2F1F1"/>
<ellipse cx="527.51" cy="209.213" rx="6.407" ry="6.40449" fill="#F2F1F1"/>
<ellipse cx="565.952" cy="209.213" rx="6.407" ry="6.40449" fill="#F2F1F1"/>
<ellipse cx="66.2057" cy="247.64" rx="6.407" ry="6.40449" fill="#F2F1F1"/>
<ellipse cx="104.648" cy="247.64" rx="6.407" ry="6.40449" fill="#F2F1F1"/>
<ellipse cx="143.09" cy="247.64" rx="6.407" ry="6.40449" fill="#F2F1F1"/>
<ellipse cx="181.532" cy="247.64" rx="6.407" ry="6.40449" fill="#F2F1F1"/>
<ellipse cx="219.974" cy="247.64" rx="6.407" ry="6.40449" fill="#F2F1F1"/>
<ellipse cx="258.416" cy="247.64" rx="6.407" ry="6.40449" fill="#F2F1F1"/>
<ellipse cx="296.858" cy="247.64" rx="6.407" ry="6.40449" fill="#F2F1F1"/>
<ellipse cx="335.3" cy="247.64" rx="6.407" ry="6.40449" fill="#F2F1F1"/>
<ellipse cx="373.742" cy="247.64" rx="6.407" ry="6.40449" fill="#F2F1F1"/>
<ellipse cx="412.184" cy="247.64" rx="6.407" ry="6.40449" fill="#F2F1F1"/>
<ellipse cx="450.626" cy="247.64" rx="6.407" ry="6.40449" fill="#F2F1F1"/>
<ellipse cx="66.2057" cy="286.067" rx="6.407" ry="6.40449" fill="#F2F1F1"/>
<ellipse cx="104.648" cy="286.067" rx="6.407" ry="6.40449" fill="#F2F1F1"/>
<ellipse cx="143.09" cy="286.067" rx="6.407" ry="6.40449" fill="#F2F1F1"/>
<ellipse cx="181.532" cy="286.067" rx="6.407" ry="6.40449" fill="#F2F1F1"/>
<ellipse cx="219.974" cy="286.067" rx="6.407" ry="6.40449" fill="#F2F1F1"/>
<ellipse cx="258.416" cy="286.067" rx="6.407" ry="6.40449" fill="#F2F1F1"/>
<ellipse cx="296.858" cy="286.067" rx="6.407" ry="6.40449" fill="#F2F1F1"/>
<ellipse cx="335.3" cy="286.067" rx="6.407" ry="6.40449" fill="#F2F1F1"/>
<ellipse cx="373.742" cy="286.067" rx="6.407" ry="6.40449" fill="#F2F1F1"/>
<ellipse cx="66.2057" cy="324.494" rx="6.407" ry="6.40449" fill="#F2F1F1"/>
<ellipse cx="104.648" cy="324.494" rx="6.407" ry="6.40449" fill="#F2F1F1"/>
<ellipse cx="143.09" cy="324.494" rx="6.407" ry="6.40449" fill="#F2F1F1"/>
<ellipse cx="181.532" cy="324.494" rx="6.407" ry="6.40449" fill="#F2F1F1"/>
<ellipse cx="219.974" cy="324.494" rx="6.407" ry="6.40449" fill="#F2F1F1"/>
<ellipse cx="258.416" cy="324.494" rx="6.407" ry="6.40449" fill="#F2F1F1"/>
<ellipse cx="296.858" cy="324.494" rx="6.407" ry="6.40449" fill="#F2F1F1"/>
</g>
<defs>
<clipPath id="clip0_0_105">
<rect width="976" height="380" fill="white"/>
</clipPath>
</defs>
</svg>
