<svg width="784" height="784" viewBox="0 0 784 784" fill="none" xmlns="http://www.w3.org/2000/svg">
<path d="M2.0715 395.071C0.375155 393.375 0.375155 390.625 2.0715 388.929C3.76783 387.232 6.51815 387.232 8.21449 388.929C9.91082 390.625 9.91082 393.375 8.21449 395.071C6.51815 396.768 3.76783 396.768 2.0715 395.071Z" fill="url(#paint0_linear_0_94)" fill-opacity="0.6"/>
<path d="M45.0724 352.071C43.3761 350.374 43.3761 347.624 45.0724 345.928C46.7688 344.231 49.5191 344.231 51.2154 345.928C52.9118 347.624 52.9118 350.374 51.2154 352.071C49.5191 353.767 46.7688 353.767 45.0724 352.071Z" fill="url(#paint1_linear_0_94)" fill-opacity="0.6"/>
<path d="M88.0734 309.07C86.377 307.373 86.377 304.623 88.0734 302.927C89.7697 301.23 92.52 301.23 94.2163 302.927C95.9127 304.623 95.9127 307.373 94.2163 309.07C92.52 310.766 89.7697 310.766 88.0734 309.07Z" fill="url(#paint2_linear_0_94)" fill-opacity="0.6"/>
<path d="M131.074 266.069C129.378 264.372 129.378 261.622 131.074 259.926C132.771 258.229 135.521 258.229 137.217 259.926C138.914 261.622 138.914 264.372 137.217 266.069C135.521 267.765 132.771 267.765 131.074 266.069Z" fill="url(#paint3_linear_0_94)" fill-opacity="0.6"/>
<path d="M174.075 223.068C172.379 221.371 172.379 218.621 174.075 216.925C175.772 215.228 178.522 215.228 180.218 216.925C181.915 218.621 181.915 221.371 180.218 223.068C178.522 224.764 175.772 224.764 174.075 223.068Z" fill="url(#paint4_linear_0_94)" fill-opacity="0.6"/>
<path d="M217.076 180.067C215.38 178.371 215.38 175.62 217.076 173.924C218.772 172.228 221.523 172.228 223.219 173.924C224.915 175.62 224.915 178.371 223.219 180.067C221.523 181.763 218.772 181.763 217.076 180.067Z" fill="url(#paint5_linear_0_94)" fill-opacity="0.6"/>
<path d="M260.077 137.066C258.381 135.37 258.381 132.619 260.077 130.923C261.773 129.227 264.524 129.227 266.22 130.923C267.916 132.619 267.916 135.37 266.22 137.066C264.524 138.762 261.773 138.762 260.077 137.066Z" fill="url(#paint6_linear_0_94)" fill-opacity="0.6"/>
<path d="M303.078 94.065C301.382 92.3686 301.382 89.6183 303.078 87.922C304.774 86.2257 307.525 86.2257 309.221 87.922C310.917 89.6183 310.917 92.3686 309.221 94.065C307.525 95.7613 304.774 95.7613 303.078 94.065Z" fill="url(#paint7_linear_0_94)" fill-opacity="0.6"/>
<path d="M346.079 51.0641C344.383 49.3677 344.383 46.6174 346.079 44.9211C347.775 43.2247 350.526 43.2247 352.222 44.9211C353.918 46.6174 353.918 49.3677 352.222 51.0641C350.526 52.7604 347.775 52.7604 346.079 51.0641Z" fill="url(#paint8_linear_0_94)" fill-opacity="0.6"/>
<path d="M389.08 8.06312C387.384 6.36678 387.384 3.61647 389.08 1.92013C390.776 0.223792 393.527 0.223792 395.223 1.92013C396.919 3.61647 396.919 6.36678 395.223 8.06312C393.527 9.75946 390.776 9.75946 389.08 8.06312Z" fill="url(#paint9_linear_0_94)" fill-opacity="0.6"/>
<path d="M45.0724 438.072C43.3761 436.376 43.3761 433.626 45.0724 431.929C46.7688 430.233 49.5191 430.233 51.2154 431.929C52.9118 433.626 52.9118 436.376 51.2154 438.072C49.5191 439.769 46.7688 439.769 45.0724 438.072Z" fill="url(#paint10_linear_0_94)" fill-opacity="0.6"/>
<path d="M88.0734 395.071C86.377 393.375 86.377 390.625 88.0734 388.929C89.7697 387.232 92.52 387.232 94.2163 388.929C95.9127 390.625 95.9127 393.375 94.2163 395.071C92.52 396.768 89.7697 396.768 88.0734 395.071Z" fill="url(#paint11_linear_0_94)" fill-opacity="0.6"/>
<path d="M131.074 352.071C129.378 350.374 129.378 347.624 131.074 345.928C132.771 344.231 135.521 344.231 137.217 345.928C138.914 347.624 138.914 350.374 137.217 352.071C135.521 353.767 132.771 353.767 131.074 352.071Z" fill="url(#paint12_linear_0_94)" fill-opacity="0.6"/>
<path d="M174.075 309.07C172.379 307.373 172.379 304.623 174.075 302.927C175.772 301.23 178.522 301.23 180.218 302.927C181.915 304.623 181.915 307.373 180.218 309.07C178.522 310.766 175.772 310.766 174.075 309.07Z" fill="url(#paint13_linear_0_94)" fill-opacity="0.6"/>
<path d="M217.076 266.069C215.38 264.372 215.38 261.622 217.076 259.926C218.772 258.229 221.523 258.229 223.219 259.926C224.915 261.622 224.915 264.372 223.219 266.069C221.523 267.765 218.772 267.765 217.076 266.069Z" fill="url(#paint14_linear_0_94)" fill-opacity="0.6"/>
<path d="M260.077 223.068C258.381 221.371 258.381 218.621 260.077 216.925C261.773 215.228 264.524 215.228 266.22 216.925C267.916 218.621 267.916 221.371 266.22 223.068C264.524 224.764 261.773 224.764 260.077 223.068Z" fill="url(#paint15_linear_0_94)" fill-opacity="0.6"/>
<path d="M303.078 180.067C301.382 178.371 301.382 175.62 303.078 173.924C304.774 172.228 307.525 172.228 309.221 173.924C310.917 175.62 310.917 178.371 309.221 180.067C307.525 181.763 304.774 181.763 303.078 180.067Z" fill="url(#paint16_linear_0_94)" fill-opacity="0.6"/>
<path d="M346.079 137.066C344.383 135.37 344.383 132.619 346.079 130.923C347.775 129.227 350.526 129.227 352.222 130.923C353.918 132.619 353.918 135.37 352.222 137.066C350.526 138.762 347.775 138.762 346.079 137.066Z" fill="url(#paint17_linear_0_94)" fill-opacity="0.6"/>
<path d="M389.08 94.065C387.384 92.3686 387.384 89.6183 389.08 87.922C390.776 86.2257 393.527 86.2257 395.223 87.922C396.919 89.6183 396.919 92.3686 395.223 94.065C393.527 95.7613 390.776 95.7613 389.08 94.065Z" fill="url(#paint18_linear_0_94)" fill-opacity="0.6"/>
<path d="M432.081 51.0641C430.384 49.3677 430.384 46.6174 432.081 44.9211C433.777 43.2247 436.527 43.2247 438.224 44.9211C439.92 46.6174 439.92 49.3677 438.224 51.0641C436.527 52.7604 433.777 52.7604 432.081 51.0641Z" fill="url(#paint19_linear_0_94)" fill-opacity="0.6"/>
<path d="M88.0734 481.073C86.377 479.377 86.377 476.627 88.0734 474.93C89.7697 473.234 92.52 473.234 94.2163 474.93C95.9127 476.627 95.9127 479.377 94.2163 481.073C92.52 482.77 89.7697 482.77 88.0734 481.073Z" fill="url(#paint20_linear_0_94)" fill-opacity="0.6"/>
<path d="M131.074 438.072C129.378 436.376 129.378 433.626 131.074 431.929C132.771 430.233 135.521 430.233 137.217 431.929C138.914 433.626 138.914 436.376 137.217 438.072C135.521 439.769 132.771 439.769 131.074 438.072Z" fill="url(#paint21_linear_0_94)" fill-opacity="0.6"/>
<path d="M174.075 395.071C172.379 393.375 172.379 390.625 174.075 388.929C175.772 387.232 178.522 387.232 180.218 388.929C181.915 390.625 181.915 393.375 180.218 395.071C178.522 396.768 175.772 396.768 174.075 395.071Z" fill="url(#paint22_linear_0_94)" fill-opacity="0.6"/>
<path d="M217.076 352.071C215.38 350.374 215.38 347.624 217.076 345.928C218.772 344.231 221.523 344.231 223.219 345.928C224.915 347.624 224.915 350.374 223.219 352.071C221.523 353.767 218.772 353.767 217.076 352.071Z" fill="url(#paint23_linear_0_94)" fill-opacity="0.6"/>
<path d="M260.077 309.07C258.381 307.373 258.381 304.623 260.077 302.927C261.773 301.23 264.524 301.23 266.22 302.927C267.916 304.623 267.916 307.373 266.22 309.07C264.524 310.766 261.773 310.766 260.077 309.07Z" fill="url(#paint24_linear_0_94)" fill-opacity="0.6"/>
<path d="M303.078 266.069C301.382 264.372 301.382 261.622 303.078 259.926C304.774 258.229 307.525 258.229 309.221 259.926C310.917 261.622 310.917 264.372 309.221 266.069C307.525 267.765 304.774 267.765 303.078 266.069Z" fill="url(#paint25_linear_0_94)" fill-opacity="0.6"/>
<path d="M346.079 223.068C344.383 221.371 344.383 218.621 346.079 216.925C347.775 215.228 350.526 215.228 352.222 216.925C353.918 218.621 353.918 221.371 352.222 223.068C350.526 224.764 347.775 224.764 346.079 223.068Z" fill="url(#paint26_linear_0_94)" fill-opacity="0.6"/>
<path d="M389.08 180.067C387.384 178.371 387.384 175.62 389.08 173.924C390.776 172.228 393.527 172.228 395.223 173.924C396.919 175.62 396.919 178.371 395.223 180.067C393.527 181.763 390.776 181.763 389.08 180.067Z" fill="url(#paint27_linear_0_94)" fill-opacity="0.6"/>
<path d="M432.081 137.066C430.384 135.37 430.384 132.619 432.081 130.923C433.777 129.227 436.527 129.227 438.224 130.923C439.92 132.619 439.92 135.37 438.224 137.066C436.527 138.762 433.777 138.762 432.081 137.066Z" fill="url(#paint28_linear_0_94)" fill-opacity="0.6"/>
<path d="M475.082 94.065C473.385 92.3686 473.385 89.6183 475.082 87.922C476.778 86.2257 479.528 86.2257 481.225 87.922C482.921 89.6183 482.921 92.3686 481.225 94.065C479.528 95.7613 476.778 95.7613 475.082 94.065Z" fill="url(#paint29_linear_0_94)" fill-opacity="0.6"/>
<path d="M131.074 524.074C129.378 522.378 129.378 519.628 131.074 517.931C132.771 516.235 135.521 516.235 137.217 517.931C138.914 519.628 138.914 522.378 137.217 524.074C135.521 525.771 132.771 525.771 131.074 524.074Z" fill="url(#paint30_linear_0_94)" fill-opacity="0.6"/>
<path d="M174.075 481.073C172.379 479.377 172.379 476.627 174.075 474.93C175.772 473.234 178.522 473.234 180.218 474.93C181.915 476.627 181.915 479.377 180.218 481.073C178.522 482.77 175.772 482.77 174.075 481.073Z" fill="url(#paint31_linear_0_94)" fill-opacity="0.6"/>
<path d="M217.076 438.072C215.38 436.376 215.38 433.626 217.076 431.929C218.772 430.233 221.523 430.233 223.219 431.929C224.915 433.626 224.915 436.376 223.219 438.072C221.523 439.769 218.772 439.769 217.076 438.072Z" fill="url(#paint32_linear_0_94)" fill-opacity="0.6"/>
<path d="M260.077 395.071C258.381 393.375 258.381 390.625 260.077 388.929C261.773 387.232 264.524 387.232 266.22 388.929C267.916 390.625 267.916 393.375 266.22 395.071C264.524 396.768 261.773 396.768 260.077 395.071Z" fill="url(#paint33_linear_0_94)" fill-opacity="0.6"/>
<path d="M303.078 352.071C301.382 350.374 301.382 347.624 303.078 345.928C304.774 344.231 307.525 344.231 309.221 345.928C310.917 347.624 310.917 350.374 309.221 352.071C307.525 353.767 304.774 353.767 303.078 352.071Z" fill="url(#paint34_linear_0_94)" fill-opacity="0.6"/>
<path d="M346.079 309.07C344.383 307.373 344.383 304.623 346.079 302.927C347.775 301.23 350.526 301.23 352.222 302.927C353.918 304.623 353.918 307.373 352.222 309.07C350.526 310.766 347.775 310.766 346.079 309.07Z" fill="url(#paint35_linear_0_94)" fill-opacity="0.6"/>
<path d="M389.08 266.069C387.384 264.372 387.384 261.622 389.08 259.926C390.776 258.229 393.527 258.229 395.223 259.926C396.919 261.622 396.919 264.372 395.223 266.069C393.527 267.765 390.776 267.765 389.08 266.069Z" fill="url(#paint36_linear_0_94)" fill-opacity="0.6"/>
<path d="M432.081 223.068C430.384 221.371 430.384 218.621 432.081 216.925C433.777 215.228 436.527 215.228 438.224 216.925C439.92 218.621 439.92 221.371 438.224 223.068C436.527 224.764 433.777 224.764 432.081 223.068Z" fill="url(#paint37_linear_0_94)" fill-opacity="0.6"/>
<path d="M475.082 180.067C473.385 178.371 473.385 175.62 475.082 173.924C476.778 172.228 479.528 172.228 481.225 173.924C482.921 175.62 482.921 178.371 481.225 180.067C479.528 181.763 476.778 181.763 475.082 180.067Z" fill="url(#paint38_linear_0_94)" fill-opacity="0.6"/>
<path d="M518.083 137.066C516.386 135.37 516.386 132.619 518.083 130.923C519.779 129.227 522.529 129.227 524.226 130.923C525.922 132.619 525.922 135.37 524.226 137.066C522.529 138.762 519.779 138.762 518.083 137.066Z" fill="url(#paint39_linear_0_94)" fill-opacity="0.6"/>
<path d="M174.075 567.075C172.379 565.379 172.379 562.629 174.075 560.932C175.772 559.236 178.522 559.236 180.218 560.932C181.915 562.629 181.915 565.379 180.218 567.075C178.522 568.772 175.772 568.772 174.075 567.075Z" fill="url(#paint40_linear_0_94)" fill-opacity="0.6"/>
<path d="M217.076 524.074C215.38 522.378 215.38 519.628 217.076 517.931C218.772 516.235 221.523 516.235 223.219 517.931C224.915 519.628 224.915 522.378 223.219 524.074C221.523 525.771 218.772 525.771 217.076 524.074Z" fill="url(#paint41_linear_0_94)" fill-opacity="0.6"/>
<path d="M260.077 481.073C258.381 479.377 258.381 476.627 260.077 474.93C261.773 473.234 264.524 473.234 266.22 474.93C267.916 476.627 267.916 479.377 266.22 481.073C264.524 482.77 261.773 482.77 260.077 481.073Z" fill="url(#paint42_linear_0_94)" fill-opacity="0.6"/>
<path d="M303.078 438.072C301.382 436.376 301.382 433.626 303.078 431.929C304.774 430.233 307.525 430.233 309.221 431.929C310.917 433.626 310.917 436.376 309.221 438.072C307.525 439.769 304.774 439.769 303.078 438.072Z" fill="url(#paint43_linear_0_94)" fill-opacity="0.6"/>
<path d="M346.079 395.071C344.383 393.375 344.383 390.625 346.079 388.929C347.775 387.232 350.526 387.232 352.222 388.929C353.918 390.625 353.918 393.375 352.222 395.071C350.526 396.768 347.775 396.768 346.079 395.071Z" fill="url(#paint44_linear_0_94)" fill-opacity="0.6"/>
<path d="M389.08 352.071C387.384 350.374 387.384 347.624 389.08 345.928C390.776 344.231 393.527 344.231 395.223 345.928C396.919 347.624 396.919 350.374 395.223 352.071C393.527 353.767 390.776 353.767 389.08 352.071Z" fill="url(#paint45_linear_0_94)" fill-opacity="0.6"/>
<path d="M432.081 309.07C430.384 307.373 430.384 304.623 432.081 302.927C433.777 301.23 436.527 301.23 438.224 302.927C439.92 304.623 439.92 307.373 438.224 309.07C436.527 310.766 433.777 310.766 432.081 309.07Z" fill="url(#paint46_linear_0_94)" fill-opacity="0.6"/>
<path d="M475.082 266.069C473.385 264.372 473.385 261.622 475.082 259.926C476.778 258.229 479.528 258.229 481.225 259.926C482.921 261.622 482.921 264.372 481.225 266.069C479.528 267.765 476.778 267.765 475.082 266.069Z" fill="url(#paint47_linear_0_94)" fill-opacity="0.6"/>
<path d="M518.083 223.068C516.386 221.371 516.386 218.621 518.083 216.925C519.779 215.228 522.529 215.228 524.226 216.925C525.922 218.621 525.922 221.371 524.226 223.068C522.529 224.764 519.779 224.764 518.083 223.068Z" fill="url(#paint48_linear_0_94)" fill-opacity="0.6"/>
<path d="M561.084 180.067C559.387 178.371 559.387 175.62 561.084 173.924C562.78 172.228 565.53 172.228 567.227 173.924C568.923 175.62 568.923 178.371 567.227 180.067C565.53 181.763 562.78 181.763 561.084 180.067Z" fill="url(#paint49_linear_0_94)" fill-opacity="0.6"/>
<path d="M217.076 610.076C215.38 608.38 215.38 605.629 217.076 603.933C218.772 602.237 221.523 602.237 223.219 603.933C224.915 605.629 224.915 608.38 223.219 610.076C221.523 611.772 218.772 611.772 217.076 610.076Z" fill="url(#paint50_linear_0_94)" fill-opacity="0.6"/>
<path d="M260.077 567.075C258.381 565.379 258.381 562.629 260.077 560.932C261.773 559.236 264.524 559.236 266.22 560.932C267.916 562.629 267.916 565.379 266.22 567.075C264.524 568.772 261.773 568.772 260.077 567.075Z" fill="url(#paint51_linear_0_94)" fill-opacity="0.6"/>
<path d="M303.078 524.074C301.382 522.378 301.382 519.628 303.078 517.931C304.774 516.235 307.525 516.235 309.221 517.931C310.917 519.628 310.917 522.378 309.221 524.074C307.525 525.771 304.774 525.771 303.078 524.074Z" fill="url(#paint52_linear_0_94)" fill-opacity="0.6"/>
<path d="M346.079 481.073C344.383 479.377 344.383 476.627 346.079 474.93C347.775 473.234 350.526 473.234 352.222 474.93C353.918 476.627 353.918 479.377 352.222 481.073C350.526 482.77 347.775 482.77 346.079 481.073Z" fill="url(#paint53_linear_0_94)" fill-opacity="0.6"/>
<path d="M389.08 438.072C387.384 436.376 387.384 433.626 389.08 431.929C390.776 430.233 393.527 430.233 395.223 431.929C396.919 433.626 396.919 436.376 395.223 438.072C393.527 439.769 390.776 439.769 389.08 438.072Z" fill="url(#paint54_linear_0_94)" fill-opacity="0.6"/>
<path d="M432.081 395.071C430.384 393.375 430.384 390.625 432.081 388.929C433.777 387.232 436.527 387.232 438.224 388.929C439.92 390.625 439.92 393.375 438.224 395.071C436.527 396.768 433.777 396.768 432.081 395.071Z" fill="url(#paint55_linear_0_94)" fill-opacity="0.6"/>
<path d="M475.082 352.071C473.385 350.374 473.385 347.624 475.082 345.928C476.778 344.231 479.528 344.231 481.225 345.928C482.921 347.624 482.921 350.374 481.225 352.071C479.528 353.767 476.778 353.767 475.082 352.071Z" fill="url(#paint56_linear_0_94)" fill-opacity="0.6"/>
<path d="M518.083 309.07C516.386 307.373 516.386 304.623 518.083 302.927C519.779 301.23 522.529 301.23 524.226 302.927C525.922 304.623 525.922 307.373 524.226 309.07C522.529 310.766 519.779 310.766 518.083 309.07Z" fill="url(#paint57_linear_0_94)" fill-opacity="0.6"/>
<path d="M561.084 266.069C559.387 264.372 559.387 261.622 561.084 259.926C562.78 258.229 565.53 258.229 567.227 259.926C568.923 261.622 568.923 264.372 567.227 266.069C565.53 267.765 562.78 267.765 561.084 266.069Z" fill="url(#paint58_linear_0_94)" fill-opacity="0.6"/>
<path d="M604.085 223.068C602.388 221.371 602.388 218.621 604.085 216.925C605.781 215.228 608.531 215.228 610.228 216.925C611.924 218.621 611.924 221.371 610.228 223.068C608.531 224.764 605.781 224.764 604.085 223.068Z" fill="url(#paint59_linear_0_94)" fill-opacity="0.6"/>
<path d="M260.077 653.077C258.381 651.381 258.381 648.63 260.077 646.934C261.773 645.238 264.524 645.238 266.22 646.934C267.916 648.63 267.916 651.381 266.22 653.077C264.524 654.773 261.773 654.773 260.077 653.077Z" fill="url(#paint60_linear_0_94)" fill-opacity="0.6"/>
<path d="M303.078 610.076C301.382 608.38 301.382 605.629 303.078 603.933C304.774 602.237 307.525 602.237 309.221 603.933C310.917 605.629 310.917 608.38 309.221 610.076C307.525 611.772 304.774 611.772 303.078 610.076Z" fill="url(#paint61_linear_0_94)" fill-opacity="0.6"/>
<path d="M346.079 567.075C344.383 565.379 344.383 562.629 346.079 560.932C347.775 559.236 350.526 559.236 352.222 560.932C353.918 562.629 353.918 565.379 352.222 567.075C350.526 568.772 347.775 568.772 346.079 567.075Z" fill="url(#paint62_linear_0_94)" fill-opacity="0.6"/>
<path d="M389.08 524.074C387.384 522.378 387.384 519.628 389.08 517.931C390.776 516.235 393.527 516.235 395.223 517.931C396.919 519.628 396.919 522.378 395.223 524.074C393.527 525.771 390.776 525.771 389.08 524.074Z" fill="url(#paint63_linear_0_94)" fill-opacity="0.6"/>
<path d="M432.081 481.073C430.384 479.377 430.384 476.627 432.081 474.93C433.777 473.234 436.527 473.234 438.224 474.93C439.92 476.627 439.92 479.377 438.224 481.073C436.527 482.77 433.777 482.77 432.081 481.073Z" fill="url(#paint64_linear_0_94)" fill-opacity="0.6"/>
<path d="M475.082 438.072C473.385 436.376 473.385 433.626 475.082 431.929C476.778 430.233 479.528 430.233 481.225 431.929C482.921 433.626 482.921 436.376 481.225 438.072C479.528 439.769 476.778 439.769 475.082 438.072Z" fill="url(#paint65_linear_0_94)" fill-opacity="0.6"/>
<path d="M518.083 395.071C516.386 393.375 516.386 390.625 518.083 388.929C519.779 387.232 522.529 387.232 524.226 388.929C525.922 390.625 525.922 393.375 524.226 395.071C522.529 396.768 519.779 396.768 518.083 395.071Z" fill="url(#paint66_linear_0_94)" fill-opacity="0.6"/>
<path d="M561.084 352.071C559.387 350.374 559.387 347.624 561.084 345.928C562.78 344.231 565.53 344.231 567.227 345.928C568.923 347.624 568.923 350.374 567.227 352.071C565.53 353.767 562.78 353.767 561.084 352.071Z" fill="url(#paint67_linear_0_94)" fill-opacity="0.6"/>
<path d="M604.085 309.07C602.388 307.373 602.388 304.623 604.085 302.927C605.781 301.23 608.531 301.23 610.228 302.927C611.924 304.623 611.924 307.373 610.228 309.07C608.531 310.766 605.781 310.766 604.085 309.07Z" fill="url(#paint68_linear_0_94)" fill-opacity="0.6"/>
<path d="M647.085 266.069C645.389 264.372 645.389 261.622 647.085 259.926C648.782 258.229 651.532 258.229 653.228 259.926C654.925 261.622 654.925 264.372 653.228 266.069C651.532 267.765 648.782 267.765 647.085 266.069Z" fill="url(#paint69_linear_0_94)" fill-opacity="0.6"/>
<path d="M303.078 696.078C301.382 694.382 301.382 691.631 303.078 689.935C304.774 688.239 307.525 688.239 309.221 689.935C310.917 691.631 310.917 694.382 309.221 696.078C307.525 697.774 304.774 697.774 303.078 696.078Z" fill="url(#paint70_linear_0_94)" fill-opacity="0.6"/>
<path d="M346.079 653.077C344.383 651.381 344.383 648.63 346.079 646.934C347.775 645.238 350.526 645.238 352.222 646.934C353.918 648.63 353.918 651.381 352.222 653.077C350.526 654.773 347.775 654.773 346.079 653.077Z" fill="url(#paint71_linear_0_94)" fill-opacity="0.6"/>
<path d="M389.08 610.076C387.384 608.38 387.384 605.629 389.08 603.933C390.776 602.237 393.527 602.237 395.223 603.933C396.919 605.629 396.919 608.38 395.223 610.076C393.527 611.772 390.776 611.772 389.08 610.076Z" fill="url(#paint72_linear_0_94)" fill-opacity="0.6"/>
<path d="M432.081 567.075C430.384 565.379 430.384 562.629 432.081 560.932C433.777 559.236 436.527 559.236 438.224 560.932C439.92 562.629 439.92 565.379 438.224 567.075C436.527 568.772 433.777 568.772 432.081 567.075Z" fill="url(#paint73_linear_0_94)" fill-opacity="0.6"/>
<path d="M475.082 524.074C473.385 522.378 473.385 519.628 475.082 517.931C476.778 516.235 479.528 516.235 481.225 517.931C482.921 519.628 482.921 522.378 481.225 524.074C479.528 525.771 476.778 525.771 475.082 524.074Z" fill="url(#paint74_linear_0_94)" fill-opacity="0.6"/>
<path d="M518.083 481.073C516.386 479.377 516.386 476.627 518.083 474.93C519.779 473.234 522.529 473.234 524.226 474.93C525.922 476.627 525.922 479.377 524.226 481.073C522.529 482.77 519.779 482.77 518.083 481.073Z" fill="url(#paint75_linear_0_94)" fill-opacity="0.6"/>
<path d="M561.084 438.072C559.387 436.376 559.387 433.626 561.084 431.929C562.78 430.233 565.53 430.233 567.227 431.929C568.923 433.626 568.923 436.376 567.227 438.072C565.53 439.769 562.78 439.769 561.084 438.072Z" fill="url(#paint76_linear_0_94)" fill-opacity="0.6"/>
<path d="M604.085 395.071C602.388 393.375 602.388 390.625 604.085 388.929C605.781 387.232 608.531 387.232 610.228 388.929C611.924 390.625 611.924 393.375 610.228 395.071C608.531 396.768 605.781 396.768 604.085 395.071Z" fill="url(#paint77_linear_0_94)" fill-opacity="0.6"/>
<path d="M647.085 352.071C645.389 350.374 645.389 347.624 647.085 345.928C648.782 344.231 651.532 344.231 653.228 345.928C654.925 347.624 654.925 350.374 653.228 352.071C651.532 353.767 648.782 353.767 647.085 352.071Z" fill="url(#paint78_linear_0_94)" fill-opacity="0.6"/>
<path d="M690.086 309.07C688.39 307.373 688.39 304.623 690.086 302.927C691.783 301.23 694.533 301.23 696.229 302.927C697.926 304.623 697.926 307.373 696.229 309.07C694.533 310.766 691.783 310.766 690.086 309.07Z" fill="url(#paint79_linear_0_94)" fill-opacity="0.6"/>
<path d="M346.079 739.079C344.383 737.383 344.383 734.632 346.079 732.936C347.775 731.24 350.526 731.24 352.222 732.936C353.918 734.632 353.918 737.383 352.222 739.079C350.526 740.775 347.775 740.775 346.079 739.079Z" fill="url(#paint80_linear_0_94)" fill-opacity="0.6"/>
<path d="M389.08 696.078C387.384 694.382 387.384 691.631 389.08 689.935C390.776 688.239 393.527 688.239 395.223 689.935C396.919 691.631 396.919 694.382 395.223 696.078C393.527 697.774 390.776 697.774 389.08 696.078Z" fill="url(#paint81_linear_0_94)" fill-opacity="0.6"/>
<path d="M432.081 653.077C430.384 651.381 430.384 648.63 432.081 646.934C433.777 645.238 436.527 645.238 438.224 646.934C439.92 648.63 439.92 651.381 438.224 653.077C436.527 654.773 433.777 654.773 432.081 653.077Z" fill="url(#paint82_linear_0_94)" fill-opacity="0.6"/>
<path d="M475.082 610.076C473.385 608.38 473.385 605.629 475.082 603.933C476.778 602.237 479.528 602.237 481.225 603.933C482.921 605.629 482.921 608.38 481.225 610.076C479.528 611.772 476.778 611.772 475.082 610.076Z" fill="url(#paint83_linear_0_94)" fill-opacity="0.6"/>
<path d="M518.083 567.075C516.386 565.379 516.386 562.629 518.083 560.932C519.779 559.236 522.529 559.236 524.226 560.932C525.922 562.629 525.922 565.379 524.226 567.075C522.529 568.772 519.779 568.772 518.083 567.075Z" fill="url(#paint84_linear_0_94)" fill-opacity="0.6"/>
<path d="M561.084 524.074C559.387 522.378 559.387 519.628 561.084 517.931C562.78 516.235 565.53 516.235 567.227 517.931C568.923 519.628 568.923 522.378 567.227 524.074C565.53 525.771 562.78 525.771 561.084 524.074Z" fill="url(#paint85_linear_0_94)" fill-opacity="0.6"/>
<path d="M604.085 481.073C602.388 479.377 602.388 476.627 604.085 474.93C605.781 473.234 608.531 473.234 610.228 474.93C611.924 476.627 611.924 479.377 610.228 481.073C608.531 482.77 605.781 482.77 604.085 481.073Z" fill="url(#paint86_linear_0_94)" fill-opacity="0.6"/>
<path d="M647.085 438.072C645.389 436.376 645.389 433.626 647.085 431.929C648.782 430.233 651.532 430.233 653.228 431.929C654.925 433.626 654.925 436.376 653.228 438.072C651.532 439.769 648.782 439.769 647.085 438.072Z" fill="url(#paint87_linear_0_94)" fill-opacity="0.6"/>
<path d="M690.086 395.071C688.39 393.375 688.39 390.625 690.086 388.929C691.783 387.232 694.533 387.232 696.229 388.929C697.926 390.625 697.926 393.375 696.229 395.071C694.533 396.768 691.783 396.768 690.086 395.071Z" fill="url(#paint88_linear_0_94)" fill-opacity="0.6"/>
<path d="M733.087 352.071C731.391 350.374 731.391 347.624 733.087 345.928C734.784 344.231 737.534 344.231 739.23 345.928C740.927 347.624 740.927 350.374 739.23 352.071C737.534 353.767 734.784 353.767 733.087 352.071Z" fill="url(#paint89_linear_0_94)" fill-opacity="0.6"/>
<path d="M389.08 782.08C387.384 780.384 387.384 777.633 389.08 775.937C390.776 774.241 393.527 774.241 395.223 775.937C396.919 777.633 396.919 780.384 395.223 782.08C393.527 783.776 390.776 783.776 389.08 782.08Z" fill="url(#paint90_linear_0_94)" fill-opacity="0.6"/>
<path d="M432.081 739.079C430.384 737.383 430.384 734.632 432.081 732.936C433.777 731.24 436.527 731.24 438.224 732.936C439.92 734.632 439.92 737.383 438.224 739.079C436.527 740.775 433.777 740.775 432.081 739.079Z" fill="url(#paint91_linear_0_94)" fill-opacity="0.6"/>
<path d="M475.082 696.078C473.385 694.382 473.385 691.631 475.082 689.935C476.778 688.239 479.528 688.239 481.225 689.935C482.921 691.631 482.921 694.382 481.225 696.078C479.528 697.774 476.778 697.774 475.082 696.078Z" fill="url(#paint92_linear_0_94)" fill-opacity="0.6"/>
<path d="M518.083 653.077C516.386 651.381 516.386 648.63 518.083 646.934C519.779 645.238 522.529 645.238 524.226 646.934C525.922 648.63 525.922 651.381 524.226 653.077C522.529 654.773 519.779 654.773 518.083 653.077Z" fill="url(#paint93_linear_0_94)" fill-opacity="0.6"/>
<path d="M561.084 610.076C559.387 608.38 559.387 605.629 561.084 603.933C562.78 602.237 565.53 602.237 567.227 603.933C568.923 605.629 568.923 608.38 567.227 610.076C565.53 611.772 562.78 611.772 561.084 610.076Z" fill="url(#paint94_linear_0_94)" fill-opacity="0.6"/>
<path d="M604.085 567.075C602.388 565.379 602.388 562.629 604.085 560.932C605.781 559.236 608.531 559.236 610.228 560.932C611.924 562.629 611.924 565.379 610.228 567.075C608.531 568.772 605.781 568.772 604.085 567.075Z" fill="url(#paint95_linear_0_94)" fill-opacity="0.6"/>
<path d="M647.085 524.074C645.389 522.378 645.389 519.628 647.085 517.931C648.782 516.235 651.532 516.235 653.228 517.931C654.925 519.628 654.925 522.378 653.228 524.074C651.532 525.771 648.782 525.771 647.085 524.074Z" fill="url(#paint96_linear_0_94)" fill-opacity="0.6"/>
<path d="M690.086 481.073C688.39 479.377 688.39 476.627 690.086 474.93C691.783 473.234 694.533 473.234 696.229 474.93C697.926 476.627 697.926 479.377 696.229 481.073C694.533 482.77 691.783 482.77 690.086 481.073Z" fill="url(#paint97_linear_0_94)" fill-opacity="0.6"/>
<path d="M733.087 438.072C731.391 436.376 731.391 433.626 733.087 431.929C734.784 430.233 737.534 430.233 739.23 431.929C740.927 433.626 740.927 436.376 739.23 438.072C737.534 439.769 734.784 439.769 733.087 438.072Z" fill="url(#paint98_linear_0_94)" fill-opacity="0.6"/>
<path d="M776.088 395.071C774.392 393.375 774.392 390.625 776.088 388.929C777.785 387.232 780.535 387.232 782.231 388.929C783.928 390.625 783.928 393.375 782.231 395.071C780.535 396.768 777.785 396.768 776.088 395.071Z" fill="url(#paint99_linear_0_94)" fill-opacity="0.6"/>
<defs>
<linearGradient id="paint0_linear_0_94" x1="93.5" y1="752.349" x2="679" y2="136.349" gradientUnits="userSpaceOnUse">
<stop stop-color="#ACACAC" stop-opacity="0"/>
<stop offset="1" stop-color="#BCBCBC"/>
</linearGradient>
<linearGradient id="paint1_linear_0_94" x1="93.5" y1="752.349" x2="679" y2="136.349" gradientUnits="userSpaceOnUse">
<stop stop-color="#ACACAC" stop-opacity="0"/>
<stop offset="1" stop-color="#BCBCBC"/>
</linearGradient>
<linearGradient id="paint2_linear_0_94" x1="93.5" y1="752.349" x2="679" y2="136.349" gradientUnits="userSpaceOnUse">
<stop stop-color="#ACACAC" stop-opacity="0"/>
<stop offset="1" stop-color="#BCBCBC"/>
</linearGradient>
<linearGradient id="paint3_linear_0_94" x1="93.5" y1="752.349" x2="679" y2="136.349" gradientUnits="userSpaceOnUse">
<stop stop-color="#ACACAC" stop-opacity="0"/>
<stop offset="1" stop-color="#BCBCBC"/>
</linearGradient>
<linearGradient id="paint4_linear_0_94" x1="93.5" y1="752.349" x2="679" y2="136.349" gradientUnits="userSpaceOnUse">
<stop stop-color="#ACACAC" stop-opacity="0"/>
<stop offset="1" stop-color="#BCBCBC"/>
</linearGradient>
<linearGradient id="paint5_linear_0_94" x1="93.5" y1="752.349" x2="679" y2="136.349" gradientUnits="userSpaceOnUse">
<stop stop-color="#ACACAC" stop-opacity="0"/>
<stop offset="1" stop-color="#BCBCBC"/>
</linearGradient>
<linearGradient id="paint6_linear_0_94" x1="93.5" y1="752.349" x2="679" y2="136.349" gradientUnits="userSpaceOnUse">
<stop stop-color="#ACACAC" stop-opacity="0"/>
<stop offset="1" stop-color="#BCBCBC"/>
</linearGradient>
<linearGradient id="paint7_linear_0_94" x1="93.5" y1="752.349" x2="679" y2="136.349" gradientUnits="userSpaceOnUse">
<stop stop-color="#ACACAC" stop-opacity="0"/>
<stop offset="1" stop-color="#BCBCBC"/>
</linearGradient>
<linearGradient id="paint8_linear_0_94" x1="93.5" y1="752.349" x2="679" y2="136.349" gradientUnits="userSpaceOnUse">
<stop stop-color="#ACACAC" stop-opacity="0"/>
<stop offset="1" stop-color="#BCBCBC"/>
</linearGradient>
<linearGradient id="paint9_linear_0_94" x1="93.5" y1="752.349" x2="679" y2="136.349" gradientUnits="userSpaceOnUse">
<stop stop-color="#ACACAC" stop-opacity="0"/>
<stop offset="1" stop-color="#BCBCBC"/>
</linearGradient>
<linearGradient id="paint10_linear_0_94" x1="93.5" y1="752.349" x2="679" y2="136.349" gradientUnits="userSpaceOnUse">
<stop stop-color="#ACACAC" stop-opacity="0"/>
<stop offset="1" stop-color="#BCBCBC"/>
</linearGradient>
<linearGradient id="paint11_linear_0_94" x1="93.5" y1="752.349" x2="679" y2="136.349" gradientUnits="userSpaceOnUse">
<stop stop-color="#ACACAC" stop-opacity="0"/>
<stop offset="1" stop-color="#BCBCBC"/>
</linearGradient>
<linearGradient id="paint12_linear_0_94" x1="93.5" y1="752.349" x2="679" y2="136.349" gradientUnits="userSpaceOnUse">
<stop stop-color="#ACACAC" stop-opacity="0"/>
<stop offset="1" stop-color="#BCBCBC"/>
</linearGradient>
<linearGradient id="paint13_linear_0_94" x1="93.5" y1="752.349" x2="679" y2="136.349" gradientUnits="userSpaceOnUse">
<stop stop-color="#ACACAC" stop-opacity="0"/>
<stop offset="1" stop-color="#BCBCBC"/>
</linearGradient>
<linearGradient id="paint14_linear_0_94" x1="93.5" y1="752.349" x2="679" y2="136.349" gradientUnits="userSpaceOnUse">
<stop stop-color="#ACACAC" stop-opacity="0"/>
<stop offset="1" stop-color="#BCBCBC"/>
</linearGradient>
<linearGradient id="paint15_linear_0_94" x1="93.5" y1="752.349" x2="679" y2="136.349" gradientUnits="userSpaceOnUse">
<stop stop-color="#ACACAC" stop-opacity="0"/>
<stop offset="1" stop-color="#BCBCBC"/>
</linearGradient>
<linearGradient id="paint16_linear_0_94" x1="93.5" y1="752.349" x2="679" y2="136.349" gradientUnits="userSpaceOnUse">
<stop stop-color="#ACACAC" stop-opacity="0"/>
<stop offset="1" stop-color="#BCBCBC"/>
</linearGradient>
<linearGradient id="paint17_linear_0_94" x1="93.5" y1="752.349" x2="679" y2="136.349" gradientUnits="userSpaceOnUse">
<stop stop-color="#ACACAC" stop-opacity="0"/>
<stop offset="1" stop-color="#BCBCBC"/>
</linearGradient>
<linearGradient id="paint18_linear_0_94" x1="93.5" y1="752.349" x2="679" y2="136.349" gradientUnits="userSpaceOnUse">
<stop stop-color="#ACACAC" stop-opacity="0"/>
<stop offset="1" stop-color="#BCBCBC"/>
</linearGradient>
<linearGradient id="paint19_linear_0_94" x1="93.5" y1="752.349" x2="679" y2="136.349" gradientUnits="userSpaceOnUse">
<stop stop-color="#ACACAC" stop-opacity="0"/>
<stop offset="1" stop-color="#BCBCBC"/>
</linearGradient>
<linearGradient id="paint20_linear_0_94" x1="93.5" y1="752.349" x2="679" y2="136.349" gradientUnits="userSpaceOnUse">
<stop stop-color="#ACACAC" stop-opacity="0"/>
<stop offset="1" stop-color="#BCBCBC"/>
</linearGradient>
<linearGradient id="paint21_linear_0_94" x1="93.5" y1="752.349" x2="679" y2="136.349" gradientUnits="userSpaceOnUse">
<stop stop-color="#ACACAC" stop-opacity="0"/>
<stop offset="1" stop-color="#BCBCBC"/>
</linearGradient>
<linearGradient id="paint22_linear_0_94" x1="93.5" y1="752.349" x2="679" y2="136.349" gradientUnits="userSpaceOnUse">
<stop stop-color="#ACACAC" stop-opacity="0"/>
<stop offset="1" stop-color="#BCBCBC"/>
</linearGradient>
<linearGradient id="paint23_linear_0_94" x1="93.5" y1="752.349" x2="679" y2="136.349" gradientUnits="userSpaceOnUse">
<stop stop-color="#ACACAC" stop-opacity="0"/>
<stop offset="1" stop-color="#BCBCBC"/>
</linearGradient>
<linearGradient id="paint24_linear_0_94" x1="93.5" y1="752.349" x2="679" y2="136.349" gradientUnits="userSpaceOnUse">
<stop stop-color="#ACACAC" stop-opacity="0"/>
<stop offset="1" stop-color="#BCBCBC"/>
</linearGradient>
<linearGradient id="paint25_linear_0_94" x1="93.5" y1="752.349" x2="679" y2="136.349" gradientUnits="userSpaceOnUse">
<stop stop-color="#ACACAC" stop-opacity="0"/>
<stop offset="1" stop-color="#BCBCBC"/>
</linearGradient>
<linearGradient id="paint26_linear_0_94" x1="93.5" y1="752.349" x2="679" y2="136.349" gradientUnits="userSpaceOnUse">
<stop stop-color="#ACACAC" stop-opacity="0"/>
<stop offset="1" stop-color="#BCBCBC"/>
</linearGradient>
<linearGradient id="paint27_linear_0_94" x1="93.5" y1="752.349" x2="679" y2="136.349" gradientUnits="userSpaceOnUse">
<stop stop-color="#ACACAC" stop-opacity="0"/>
<stop offset="1" stop-color="#BCBCBC"/>
</linearGradient>
<linearGradient id="paint28_linear_0_94" x1="93.5" y1="752.349" x2="679" y2="136.349" gradientUnits="userSpaceOnUse">
<stop stop-color="#ACACAC" stop-opacity="0"/>
<stop offset="1" stop-color="#BCBCBC"/>
</linearGradient>
<linearGradient id="paint29_linear_0_94" x1="93.5" y1="752.349" x2="679" y2="136.349" gradientUnits="userSpaceOnUse">
<stop stop-color="#ACACAC" stop-opacity="0"/>
<stop offset="1" stop-color="#BCBCBC"/>
</linearGradient>
<linearGradient id="paint30_linear_0_94" x1="93.5" y1="752.349" x2="679" y2="136.349" gradientUnits="userSpaceOnUse">
<stop stop-color="#ACACAC" stop-opacity="0"/>
<stop offset="1" stop-color="#BCBCBC"/>
</linearGradient>
<linearGradient id="paint31_linear_0_94" x1="93.5" y1="752.349" x2="679" y2="136.349" gradientUnits="userSpaceOnUse">
<stop stop-color="#ACACAC" stop-opacity="0"/>
<stop offset="1" stop-color="#BCBCBC"/>
</linearGradient>
<linearGradient id="paint32_linear_0_94" x1="93.5" y1="752.349" x2="679" y2="136.349" gradientUnits="userSpaceOnUse">
<stop stop-color="#ACACAC" stop-opacity="0"/>
<stop offset="1" stop-color="#BCBCBC"/>
</linearGradient>
<linearGradient id="paint33_linear_0_94" x1="93.5" y1="752.349" x2="679" y2="136.349" gradientUnits="userSpaceOnUse">
<stop stop-color="#ACACAC" stop-opacity="0"/>
<stop offset="1" stop-color="#BCBCBC"/>
</linearGradient>
<linearGradient id="paint34_linear_0_94" x1="93.5" y1="752.349" x2="679" y2="136.349" gradientUnits="userSpaceOnUse">
<stop stop-color="#ACACAC" stop-opacity="0"/>
<stop offset="1" stop-color="#BCBCBC"/>
</linearGradient>
<linearGradient id="paint35_linear_0_94" x1="93.5" y1="752.349" x2="679" y2="136.349" gradientUnits="userSpaceOnUse">
<stop stop-color="#ACACAC" stop-opacity="0"/>
<stop offset="1" stop-color="#BCBCBC"/>
</linearGradient>
<linearGradient id="paint36_linear_0_94" x1="93.5" y1="752.349" x2="679" y2="136.349" gradientUnits="userSpaceOnUse">
<stop stop-color="#ACACAC" stop-opacity="0"/>
<stop offset="1" stop-color="#BCBCBC"/>
</linearGradient>
<linearGradient id="paint37_linear_0_94" x1="93.5" y1="752.349" x2="679" y2="136.349" gradientUnits="userSpaceOnUse">
<stop stop-color="#ACACAC" stop-opacity="0"/>
<stop offset="1" stop-color="#BCBCBC"/>
</linearGradient>
<linearGradient id="paint38_linear_0_94" x1="93.5" y1="752.349" x2="679" y2="136.349" gradientUnits="userSpaceOnUse">
<stop stop-color="#ACACAC" stop-opacity="0"/>
<stop offset="1" stop-color="#BCBCBC"/>
</linearGradient>
<linearGradient id="paint39_linear_0_94" x1="93.5" y1="752.349" x2="679" y2="136.349" gradientUnits="userSpaceOnUse">
<stop stop-color="#ACACAC" stop-opacity="0"/>
<stop offset="1" stop-color="#BCBCBC"/>
</linearGradient>
<linearGradient id="paint40_linear_0_94" x1="93.5" y1="752.349" x2="679" y2="136.349" gradientUnits="userSpaceOnUse">
<stop stop-color="#ACACAC" stop-opacity="0"/>
<stop offset="1" stop-color="#BCBCBC"/>
</linearGradient>
<linearGradient id="paint41_linear_0_94" x1="93.5" y1="752.349" x2="679" y2="136.349" gradientUnits="userSpaceOnUse">
<stop stop-color="#ACACAC" stop-opacity="0"/>
<stop offset="1" stop-color="#BCBCBC"/>
</linearGradient>
<linearGradient id="paint42_linear_0_94" x1="93.5" y1="752.349" x2="679" y2="136.349" gradientUnits="userSpaceOnUse">
<stop stop-color="#ACACAC" stop-opacity="0"/>
<stop offset="1" stop-color="#BCBCBC"/>
</linearGradient>
<linearGradient id="paint43_linear_0_94" x1="93.5" y1="752.349" x2="679" y2="136.349" gradientUnits="userSpaceOnUse">
<stop stop-color="#ACACAC" stop-opacity="0"/>
<stop offset="1" stop-color="#BCBCBC"/>
</linearGradient>
<linearGradient id="paint44_linear_0_94" x1="93.5" y1="752.349" x2="679" y2="136.349" gradientUnits="userSpaceOnUse">
<stop stop-color="#ACACAC" stop-opacity="0"/>
<stop offset="1" stop-color="#BCBCBC"/>
</linearGradient>
<linearGradient id="paint45_linear_0_94" x1="93.5" y1="752.349" x2="679" y2="136.349" gradientUnits="userSpaceOnUse">
<stop stop-color="#ACACAC" stop-opacity="0"/>
<stop offset="1" stop-color="#BCBCBC"/>
</linearGradient>
<linearGradient id="paint46_linear_0_94" x1="93.5" y1="752.349" x2="679" y2="136.349" gradientUnits="userSpaceOnUse">
<stop stop-color="#ACACAC" stop-opacity="0"/>
<stop offset="1" stop-color="#BCBCBC"/>
</linearGradient>
<linearGradient id="paint47_linear_0_94" x1="93.5" y1="752.349" x2="679" y2="136.349" gradientUnits="userSpaceOnUse">
<stop stop-color="#ACACAC" stop-opacity="0"/>
<stop offset="1" stop-color="#BCBCBC"/>
</linearGradient>
<linearGradient id="paint48_linear_0_94" x1="93.5" y1="752.349" x2="679" y2="136.349" gradientUnits="userSpaceOnUse">
<stop stop-color="#ACACAC" stop-opacity="0"/>
<stop offset="1" stop-color="#BCBCBC"/>
</linearGradient>
<linearGradient id="paint49_linear_0_94" x1="93.5" y1="752.349" x2="679" y2="136.349" gradientUnits="userSpaceOnUse">
<stop stop-color="#ACACAC" stop-opacity="0"/>
<stop offset="1" stop-color="#BCBCBC"/>
</linearGradient>
<linearGradient id="paint50_linear_0_94" x1="93.5" y1="752.349" x2="679" y2="136.349" gradientUnits="userSpaceOnUse">
<stop stop-color="#ACACAC" stop-opacity="0"/>
<stop offset="1" stop-color="#BCBCBC"/>
</linearGradient>
<linearGradient id="paint51_linear_0_94" x1="93.5" y1="752.349" x2="679" y2="136.349" gradientUnits="userSpaceOnUse">
<stop stop-color="#ACACAC" stop-opacity="0"/>
<stop offset="1" stop-color="#BCBCBC"/>
</linearGradient>
<linearGradient id="paint52_linear_0_94" x1="93.5" y1="752.349" x2="679" y2="136.349" gradientUnits="userSpaceOnUse">
<stop stop-color="#ACACAC" stop-opacity="0"/>
<stop offset="1" stop-color="#BCBCBC"/>
</linearGradient>
<linearGradient id="paint53_linear_0_94" x1="93.5" y1="752.349" x2="679" y2="136.349" gradientUnits="userSpaceOnUse">
<stop stop-color="#ACACAC" stop-opacity="0"/>
<stop offset="1" stop-color="#BCBCBC"/>
</linearGradient>
<linearGradient id="paint54_linear_0_94" x1="93.5" y1="752.349" x2="679" y2="136.349" gradientUnits="userSpaceOnUse">
<stop stop-color="#ACACAC" stop-opacity="0"/>
<stop offset="1" stop-color="#BCBCBC"/>
</linearGradient>
<linearGradient id="paint55_linear_0_94" x1="93.5" y1="752.349" x2="679" y2="136.349" gradientUnits="userSpaceOnUse">
<stop stop-color="#ACACAC" stop-opacity="0"/>
<stop offset="1" stop-color="#BCBCBC"/>
</linearGradient>
<linearGradient id="paint56_linear_0_94" x1="93.5" y1="752.349" x2="679" y2="136.349" gradientUnits="userSpaceOnUse">
<stop stop-color="#ACACAC" stop-opacity="0"/>
<stop offset="1" stop-color="#BCBCBC"/>
</linearGradient>
<linearGradient id="paint57_linear_0_94" x1="93.5" y1="752.349" x2="679" y2="136.349" gradientUnits="userSpaceOnUse">
<stop stop-color="#ACACAC" stop-opacity="0"/>
<stop offset="1" stop-color="#BCBCBC"/>
</linearGradient>
<linearGradient id="paint58_linear_0_94" x1="93.5" y1="752.349" x2="679" y2="136.349" gradientUnits="userSpaceOnUse">
<stop stop-color="#ACACAC" stop-opacity="0"/>
<stop offset="1" stop-color="#BCBCBC"/>
</linearGradient>
<linearGradient id="paint59_linear_0_94" x1="93.5" y1="752.349" x2="679" y2="136.349" gradientUnits="userSpaceOnUse">
<stop stop-color="#ACACAC" stop-opacity="0"/>
<stop offset="1" stop-color="#BCBCBC"/>
</linearGradient>
<linearGradient id="paint60_linear_0_94" x1="93.5" y1="752.349" x2="679" y2="136.349" gradientUnits="userSpaceOnUse">
<stop stop-color="#ACACAC" stop-opacity="0"/>
<stop offset="1" stop-color="#BCBCBC"/>
</linearGradient>
<linearGradient id="paint61_linear_0_94" x1="93.5" y1="752.349" x2="679" y2="136.349" gradientUnits="userSpaceOnUse">
<stop stop-color="#ACACAC" stop-opacity="0"/>
<stop offset="1" stop-color="#BCBCBC"/>
</linearGradient>
<linearGradient id="paint62_linear_0_94" x1="93.5" y1="752.349" x2="679" y2="136.349" gradientUnits="userSpaceOnUse">
<stop stop-color="#ACACAC" stop-opacity="0"/>
<stop offset="1" stop-color="#BCBCBC"/>
</linearGradient>
<linearGradient id="paint63_linear_0_94" x1="93.5" y1="752.349" x2="679" y2="136.349" gradientUnits="userSpaceOnUse">
<stop stop-color="#ACACAC" stop-opacity="0"/>
<stop offset="1" stop-color="#BCBCBC"/>
</linearGradient>
<linearGradient id="paint64_linear_0_94" x1="93.5" y1="752.349" x2="679" y2="136.349" gradientUnits="userSpaceOnUse">
<stop stop-color="#ACACAC" stop-opacity="0"/>
<stop offset="1" stop-color="#BCBCBC"/>
</linearGradient>
<linearGradient id="paint65_linear_0_94" x1="93.5" y1="752.349" x2="679" y2="136.349" gradientUnits="userSpaceOnUse">
<stop stop-color="#ACACAC" stop-opacity="0"/>
<stop offset="1" stop-color="#BCBCBC"/>
</linearGradient>
<linearGradient id="paint66_linear_0_94" x1="93.5" y1="752.349" x2="679" y2="136.349" gradientUnits="userSpaceOnUse">
<stop stop-color="#ACACAC" stop-opacity="0"/>
<stop offset="1" stop-color="#BCBCBC"/>
</linearGradient>
<linearGradient id="paint67_linear_0_94" x1="93.5" y1="752.349" x2="679" y2="136.349" gradientUnits="userSpaceOnUse">
<stop stop-color="#ACACAC" stop-opacity="0"/>
<stop offset="1" stop-color="#BCBCBC"/>
</linearGradient>
<linearGradient id="paint68_linear_0_94" x1="93.5" y1="752.349" x2="679" y2="136.349" gradientUnits="userSpaceOnUse">
<stop stop-color="#ACACAC" stop-opacity="0"/>
<stop offset="1" stop-color="#BCBCBC"/>
</linearGradient>
<linearGradient id="paint69_linear_0_94" x1="93.5" y1="752.349" x2="679" y2="136.349" gradientUnits="userSpaceOnUse">
<stop stop-color="#ACACAC" stop-opacity="0"/>
<stop offset="1" stop-color="#BCBCBC"/>
</linearGradient>
<linearGradient id="paint70_linear_0_94" x1="93.5" y1="752.349" x2="679" y2="136.349" gradientUnits="userSpaceOnUse">
<stop stop-color="#ACACAC" stop-opacity="0"/>
<stop offset="1" stop-color="#BCBCBC"/>
</linearGradient>
<linearGradient id="paint71_linear_0_94" x1="93.5" y1="752.349" x2="679" y2="136.349" gradientUnits="userSpaceOnUse">
<stop stop-color="#ACACAC" stop-opacity="0"/>
<stop offset="1" stop-color="#BCBCBC"/>
</linearGradient>
<linearGradient id="paint72_linear_0_94" x1="93.5" y1="752.349" x2="679" y2="136.349" gradientUnits="userSpaceOnUse">
<stop stop-color="#ACACAC" stop-opacity="0"/>
<stop offset="1" stop-color="#BCBCBC"/>
</linearGradient>
<linearGradient id="paint73_linear_0_94" x1="93.5" y1="752.349" x2="679" y2="136.349" gradientUnits="userSpaceOnUse">
<stop stop-color="#ACACAC" stop-opacity="0"/>
<stop offset="1" stop-color="#BCBCBC"/>
</linearGradient>
<linearGradient id="paint74_linear_0_94" x1="93.5" y1="752.349" x2="679" y2="136.349" gradientUnits="userSpaceOnUse">
<stop stop-color="#ACACAC" stop-opacity="0"/>
<stop offset="1" stop-color="#BCBCBC"/>
</linearGradient>
<linearGradient id="paint75_linear_0_94" x1="93.5" y1="752.349" x2="679" y2="136.349" gradientUnits="userSpaceOnUse">
<stop stop-color="#ACACAC" stop-opacity="0"/>
<stop offset="1" stop-color="#BCBCBC"/>
</linearGradient>
<linearGradient id="paint76_linear_0_94" x1="93.5" y1="752.349" x2="679" y2="136.349" gradientUnits="userSpaceOnUse">
<stop stop-color="#ACACAC" stop-opacity="0"/>
<stop offset="1" stop-color="#BCBCBC"/>
</linearGradient>
<linearGradient id="paint77_linear_0_94" x1="93.5" y1="752.349" x2="679" y2="136.349" gradientUnits="userSpaceOnUse">
<stop stop-color="#ACACAC" stop-opacity="0"/>
<stop offset="1" stop-color="#BCBCBC"/>
</linearGradient>
<linearGradient id="paint78_linear_0_94" x1="93.5" y1="752.349" x2="679" y2="136.349" gradientUnits="userSpaceOnUse">
<stop stop-color="#ACACAC" stop-opacity="0"/>
<stop offset="1" stop-color="#BCBCBC"/>
</linearGradient>
<linearGradient id="paint79_linear_0_94" x1="93.5" y1="752.349" x2="679" y2="136.349" gradientUnits="userSpaceOnUse">
<stop stop-color="#ACACAC" stop-opacity="0"/>
<stop offset="1" stop-color="#BCBCBC"/>
</linearGradient>
<linearGradient id="paint80_linear_0_94" x1="93.5" y1="752.349" x2="679" y2="136.349" gradientUnits="userSpaceOnUse">
<stop stop-color="#ACACAC" stop-opacity="0"/>
<stop offset="1" stop-color="#BCBCBC"/>
</linearGradient>
<linearGradient id="paint81_linear_0_94" x1="93.5" y1="752.349" x2="679" y2="136.349" gradientUnits="userSpaceOnUse">
<stop stop-color="#ACACAC" stop-opacity="0"/>
<stop offset="1" stop-color="#BCBCBC"/>
</linearGradient>
<linearGradient id="paint82_linear_0_94" x1="93.5" y1="752.349" x2="679" y2="136.349" gradientUnits="userSpaceOnUse">
<stop stop-color="#ACACAC" stop-opacity="0"/>
<stop offset="1" stop-color="#BCBCBC"/>
</linearGradient>
<linearGradient id="paint83_linear_0_94" x1="93.5" y1="752.349" x2="679" y2="136.349" gradientUnits="userSpaceOnUse">
<stop stop-color="#ACACAC" stop-opacity="0"/>
<stop offset="1" stop-color="#BCBCBC"/>
</linearGradient>
<linearGradient id="paint84_linear_0_94" x1="93.5" y1="752.349" x2="679" y2="136.349" gradientUnits="userSpaceOnUse">
<stop stop-color="#ACACAC" stop-opacity="0"/>
<stop offset="1" stop-color="#BCBCBC"/>
</linearGradient>
<linearGradient id="paint85_linear_0_94" x1="93.5" y1="752.349" x2="679" y2="136.349" gradientUnits="userSpaceOnUse">
<stop stop-color="#ACACAC" stop-opacity="0"/>
<stop offset="1" stop-color="#BCBCBC"/>
</linearGradient>
<linearGradient id="paint86_linear_0_94" x1="93.5" y1="752.349" x2="679" y2="136.349" gradientUnits="userSpaceOnUse">
<stop stop-color="#ACACAC" stop-opacity="0"/>
<stop offset="1" stop-color="#BCBCBC"/>
</linearGradient>
<linearGradient id="paint87_linear_0_94" x1="93.5" y1="752.349" x2="679" y2="136.349" gradientUnits="userSpaceOnUse">
<stop stop-color="#ACACAC" stop-opacity="0"/>
<stop offset="1" stop-color="#BCBCBC"/>
</linearGradient>
<linearGradient id="paint88_linear_0_94" x1="93.5" y1="752.349" x2="679" y2="136.349" gradientUnits="userSpaceOnUse">
<stop stop-color="#ACACAC" stop-opacity="0"/>
<stop offset="1" stop-color="#BCBCBC"/>
</linearGradient>
<linearGradient id="paint89_linear_0_94" x1="93.5" y1="752.349" x2="679" y2="136.349" gradientUnits="userSpaceOnUse">
<stop stop-color="#ACACAC" stop-opacity="0"/>
<stop offset="1" stop-color="#BCBCBC"/>
</linearGradient>
<linearGradient id="paint90_linear_0_94" x1="93.5" y1="752.349" x2="679" y2="136.349" gradientUnits="userSpaceOnUse">
<stop stop-color="#ACACAC" stop-opacity="0"/>
<stop offset="1" stop-color="#BCBCBC"/>
</linearGradient>
<linearGradient id="paint91_linear_0_94" x1="93.5" y1="752.349" x2="679" y2="136.349" gradientUnits="userSpaceOnUse">
<stop stop-color="#ACACAC" stop-opacity="0"/>
<stop offset="1" stop-color="#BCBCBC"/>
</linearGradient>
<linearGradient id="paint92_linear_0_94" x1="93.5" y1="752.349" x2="679" y2="136.349" gradientUnits="userSpaceOnUse">
<stop stop-color="#ACACAC" stop-opacity="0"/>
<stop offset="1" stop-color="#BCBCBC"/>
</linearGradient>
<linearGradient id="paint93_linear_0_94" x1="93.5" y1="752.349" x2="679" y2="136.349" gradientUnits="userSpaceOnUse">
<stop stop-color="#ACACAC" stop-opacity="0"/>
<stop offset="1" stop-color="#BCBCBC"/>
</linearGradient>
<linearGradient id="paint94_linear_0_94" x1="93.5" y1="752.349" x2="679" y2="136.349" gradientUnits="userSpaceOnUse">
<stop stop-color="#ACACAC" stop-opacity="0"/>
<stop offset="1" stop-color="#BCBCBC"/>
</linearGradient>
<linearGradient id="paint95_linear_0_94" x1="93.5" y1="752.349" x2="679" y2="136.349" gradientUnits="userSpaceOnUse">
<stop stop-color="#ACACAC" stop-opacity="0"/>
<stop offset="1" stop-color="#BCBCBC"/>
</linearGradient>
<linearGradient id="paint96_linear_0_94" x1="93.5" y1="752.349" x2="679" y2="136.349" gradientUnits="userSpaceOnUse">
<stop stop-color="#ACACAC" stop-opacity="0"/>
<stop offset="1" stop-color="#BCBCBC"/>
</linearGradient>
<linearGradient id="paint97_linear_0_94" x1="93.5" y1="752.349" x2="679" y2="136.349" gradientUnits="userSpaceOnUse">
<stop stop-color="#ACACAC" stop-opacity="0"/>
<stop offset="1" stop-color="#BCBCBC"/>
</linearGradient>
<linearGradient id="paint98_linear_0_94" x1="93.5" y1="752.349" x2="679" y2="136.349" gradientUnits="userSpaceOnUse">
<stop stop-color="#ACACAC" stop-opacity="0"/>
<stop offset="1" stop-color="#BCBCBC"/>
</linearGradient>
<linearGradient id="paint99_linear_0_94" x1="93.5" y1="752.349" x2="679" y2="136.349" gradientUnits="userSpaceOnUse">
<stop stop-color="#ACACAC" stop-opacity="0"/>
<stop offset="1" stop-color="#BCBCBC"/>
</linearGradient>
</defs>
</svg>
