<svg width="73" height="73" viewBox="0 0 73 73" fill="none" xmlns="http://www.w3.org/2000/svg">
<g clip-path="url(#clip0_2019_2318)">
<path d="M36.4313 33.0706C35.672 33.3575 35.0043 33.6947 34.9477 33.82C34.891 33.9455 35.0299 34.6071 35.2566 35.2899C35.5524 36.1812 35.8205 36.6003 36.2062 36.7746C36.5919 36.9488 37.0835 36.8729 37.9479 36.5057C38.6101 36.2245 39.1984 35.8914 39.2551 35.7659C39.3954 35.4554 38.3777 32.8048 38.0636 32.6629C37.9252 32.6004 37.1907 32.7839 36.4313 33.0706Z" fill="#F7CD69"/>
<path d="M21.1517 30.0207C20.2964 30.3437 20.2209 31.9105 21.0428 32.2819C21.5223 32.4985 22.5071 32.1345 22.7206 31.6619C23.0799 30.8666 21.9743 29.7101 21.1517 30.0207Z" fill="#F7CD69"/>
<path d="M49.5749 43.0095C48.9294 43.2907 48.747 43.7524 49.0082 44.444C49.266 45.1268 49.8163 45.4147 50.4248 45.1851C50.9533 44.9854 51.4076 44.0897 51.2253 43.6067C51.0328 43.0971 50.1265 42.769 49.5749 43.0095Z" fill="#F7CD69"/>
<path d="M49.9726 29.3152C49.1617 29.8473 47.6506 30.6476 46.6147 31.0938L46.2557 31.2485C45.4057 31.6146 44.9989 32.5887 45.3362 33.4506C46.1073 35.4202 47.0803 36.3728 49.0711 37.1059C49.8423 37.39 50.5834 37.5791 50.7181 37.5258C50.8531 37.4727 51.0638 36.9995 51.1883 36.4704C51.3124 35.943 51.9375 34.3422 52.5774 32.9134L53.4959 30.8621C53.6312 30.5598 53.4966 30.2049 53.1947 30.0686C52.8945 29.933 52.3828 29.4896 52.0576 29.0834C51.7324 28.6771 51.462 28.3456 51.4567 28.3465C51.4511 28.3473 50.7834 28.7833 49.9726 29.3152Z" fill="#F7CD69"/>
<path d="M60.9186 35.9215C58.4212 36.2307 57.9186 39.5109 60.21 40.546C61.5081 41.1325 62.7676 40.601 63.4006 39.1997C63.81 38.2934 63.6646 37.4417 62.9737 36.701C62.2631 35.9393 61.8967 35.8004 60.9186 35.9215Z" fill="#F7CD69"/>
<path d="M54.4097 24.3465C53.605 24.6504 53.3785 24.855 53.0562 25.5684C52.614 26.5472 52.6949 27.333 53.3194 28.1225C53.9054 28.8632 54.4954 29.0955 55.4809 28.9735C58.0454 28.656 58.4732 25.3807 56.0908 24.3044C55.539 24.0551 55.1559 24.0647 54.4097 24.3465Z" fill="#F7CD69"/>
<path d="M43.8334 17.4515C42.1144 17.4451 40.9463 19.1594 41.5609 20.787C41.8388 21.5229 42.0415 21.7295 42.84 22.0902C43.6296 22.4469 43.9295 22.4657 44.6276 22.2021C45.6295 21.8237 46.135 21.1718 46.2412 20.1207C46.3837 18.7093 45.2542 17.4569 43.8334 17.4515Z" fill="#F7CD69"/>
<path d="M31.0672 13.3121C29.2268 13.4647 28.2563 15.5978 29.3192 17.1547C29.879 17.9748 30.4433 18.2639 31.3865 18.214C32.3917 18.1608 33.0348 17.7021 33.477 16.7234C33.7993 16.0099 33.8031 15.7047 33.4992 14.9C33.2081 14.1291 32.9811 13.866 32.3773 13.5999C31.9611 13.4165 31.3716 13.2869 31.0672 13.3121Z" fill="#F7CD69"/>
<path d="M18.5207 16.629C17.54 16.6155 16.8119 17.0834 16.4021 17.9905C15.7571 19.4182 16.1865 20.658 17.5374 21.2683C19.8029 22.2917 21.9189 19.7293 20.5111 17.6671C19.966 16.8684 19.534 16.6431 18.5207 16.629Z" fill="#F7CD69"/>
<path fill-rule="evenodd" clip-rule="evenodd" d="M40.612 23.0862C40.5318 23.1803 39.9776 23.8324 39.3806 24.5351C37.6268 26.5997 35.4993 28.253 33.5551 29.0624C31.606 29.8736 30.5371 29.9712 30.2413 29.3646C29.9315 28.7296 30.3181 28.3154 31.4078 28.1153C31.9807 28.0098 32.8413 27.7211 33.3197 27.4735C33.821 27.214 34.0593 26.6287 33.8818 26.093L33.5984 25.2374C33.1417 23.8582 32.6451 21.5378 32.4373 19.8107C32.4335 19.7785 32.0083 19.772 31.4923 19.7963C30.9765 19.8208 30.3088 19.7296 30.0087 19.594C29.7068 19.4577 29.3515 19.5912 29.2141 19.8926L28.282 21.9377C27.6328 23.3623 26.8448 24.8895 26.5311 25.3313C26.2172 25.7729 25.9974 26.2366 26.0422 26.3618C26.0871 26.4867 26.6202 26.8744 27.2266 27.2233C28.4428 27.9232 28.7257 28.2844 28.481 28.8259C27.8162 30.2977 23.9406 27.2368 21.554 23.3549L21.4514 23.188C21.1709 22.7318 20.5948 22.5556 20.1071 22.7769C19.6375 22.9898 18.9392 23.1543 18.5552 23.1421C18.171 23.13 17.8329 23.176 17.8037 23.2442C17.7745 23.3125 17.661 24.1436 17.5513 25.0913C17.1578 28.4929 15.8443 33.2711 13.8585 38.5252C13.3986 39.7422 13.9638 41.1071 15.1494 41.6427L26.4048 46.7274C26.745 46.8811 27.077 47.0311 27.4009 47.1774C33.0695 49.738 36.2719 51.1845 38.0233 52.065L41.8287 53.8132L45.2053 55.2743L46.3643 55.7758C47.6155 56.3172 49.0726 55.8036 49.7078 54.5972C52.1762 49.9089 55.0236 45.5806 57.304 43.05C57.9427 42.3413 58.4913 41.7068 58.5233 41.6396C58.5551 41.5727 58.3662 41.2886 58.1031 41.0083C57.8402 40.7282 57.502 40.0955 57.3513 39.6024C57.195 39.0901 56.682 38.7743 56.1543 38.8654L55.9612 38.8987C52.7477 39.4534 49.8216 39.2254 47.6576 38.2518C43.9811 36.5979 42.395 32.1622 43.3071 26.0869L43.3555 25.7639C43.4926 24.8508 43.0107 23.9567 42.1726 23.5691C41.3809 23.2029 40.6937 22.9904 40.612 23.0862ZM33.5644 33.3637C33.7602 32.7564 34.222 32.2714 34.8189 32.046L35.8532 31.6554C37.686 30.9633 37.8939 30.936 38.6705 31.2868C39.4368 31.633 39.5717 31.8248 40.2388 33.5154C40.9483 35.3139 40.9562 35.3924 40.5225 36.3524C40.0933 37.3024 40.0097 37.3648 38.2972 38.0115C36.5906 38.656 36.4779 38.6654 35.5428 38.243C34.61 37.8216 34.5393 37.7272 33.911 36.0635C33.3364 34.542 33.2931 34.2044 33.5644 33.3637ZM19.3071 29.5189C19.747 28.8891 20.9421 28.3123 21.745 28.3421C23.683 28.4138 24.874 30.5419 24.0273 32.4203C23.6969 33.1532 23.4838 33.3353 22.5383 33.6925C21.5384 34.07 21.3388 34.0658 20.4133 33.6477C19.5159 33.2423 19.3479 33.0705 19.033 32.2365C18.6233 31.1516 18.7004 30.3875 19.3071 29.5189ZM47.5239 43.0351C48.0087 41.9639 49.0339 41.2383 50.0419 41.2529C51.0736 41.2675 51.6974 41.5717 52.296 42.3523C52.8403 43.0621 53.0397 44.3913 52.711 45.1189C52.388 45.8339 51.447 46.6014 50.6527 46.7976C50.1249 46.9281 49.6502 46.8558 48.9457 46.5376C48.0737 46.1436 47.926 45.98 47.5534 44.9934C47.1965 44.0478 47.1923 43.7675 47.5239 43.0351ZM25.6135 38.9313C25.8496 38.2348 26.8569 37.5927 27.6622 37.625C28.4829 37.6582 28.9645 37.9578 29.4439 38.7336C30.209 39.9718 29.7033 41.6166 28.6974 41.1621C28.3502 41.0053 28.1957 40.7285 28.1684 40.2159C28.1176 39.2585 27.5413 39.0057 26.9143 39.6656C26.5116 40.0896 26.3495 40.1217 25.9177 39.8637C25.4944 39.6107 25.4399 39.4435 25.6135 38.9313ZM37.8772 45.3092C36.8607 44.85 37.7725 43.3894 39.2332 43.1369C40.4067 42.9341 41.2902 43.4921 41.668 44.6749C42.0421 45.8456 41.5358 46.8081 40.6889 46.5368C40.2099 46.3833 40.1269 46.2404 40.1788 45.658C40.2595 44.7513 39.6889 44.4859 38.9369 45.0807C38.5342 45.3991 38.2244 45.4661 37.8772 45.3092ZM32.2701 45.4873C30.8062 44.8259 30.139 43.1904 31.1739 42.7996C31.6412 42.6231 32.1492 42.8852 32.283 43.3714C32.3441 43.5935 32.6369 43.8848 32.9335 44.0189C33.2301 44.1529 33.6422 44.1799 33.8493 44.079C34.3026 43.858 34.835 44.066 35.0115 44.5332C35.4023 45.5682 33.734 46.1486 32.2701 45.4873Z" fill="#F7CD69"/>
<path fill-rule="evenodd" clip-rule="evenodd" d="M14.6799 17.7925C14.6596 17.8519 14.6406 17.9117 14.623 17.972C14.6298 17.9347 14.649 17.8739 14.6799 17.7925ZM27.4009 47.1774L26.4048 46.7274L38.0233 52.065C36.2719 51.1845 33.0695 49.738 27.4009 47.1774Z" fill="#F7CD69"/>
<path d="M25.375 47.9125C10.1914 41.0531 10.5447 41.1844 9.17859 41.8955C8.26007 42.3736 7.60589 43.8217 7.8543 44.8269C8.22944 46.3453 7.47309 45.9546 27.8918 55.179C48.3105 64.4033 47.5173 64.094 48.9047 63.3718C49.809 62.9013 50.4773 61.4454 50.2365 60.4709C49.9217 59.1962 49.6649 59.0104 45.3653 56.9433L25.375 47.9125Z" fill="#F7CD69"/>
</g>
<defs>
<clipPath id="clip0_2019_2318">
<rect width="55" height="55" fill="white" transform="translate(22.6434) rotate(24.3116)"/>
</clipPath>
</defs>
</svg>
